<svg width="512" height="512" viewBox="0 0 512 512" fill="none" xmlns="http://www.w3.org/2000/svg">
<g clip-path="url(#clip0_568_8401)">
<path d="M22.4104 512H0V0H235.349H244.941H260.859H294.979H341.154H475.034H491.756H512V67.6467V83.782V343.023V347.655V449.574V474.648V496.312V512H486.076H403.587H251.467H243.442H218.304H202.115H126.859H99.718H73.7894H50.3566H22.4104Z" fill="#140302"/>
<path d="M243.442 512L252.317 479.684L266.445 427L268.949 414.926C269.499 411.554 269.837 408.13 270.809 404.844C271.364 402.967 272.667 399.443 274.5 398.496C275.224 398.122 275.604 397.988 276.375 398.201C278.095 400.486 277.78 403.196 277.4 405.858L251.467 512H243.442Z" fill="#9F6166"/>
<path d="M403.587 512C385.302 508.097 366.298 507.862 347.674 507.598L285.742 506.849L285.988 484.521L310.304 484.559L337.334 484.428C353.127 484.23 369.033 484.217 384.744 486.083C406.066 488.614 426.486 495.006 447.088 500.746L469.126 507.026L480.098 510.142C482.079 510.72 484.18 511.193 486.076 512H403.587Z" fill="white"/>
<path d="M512 496.311L472.478 483.134L451.375 477.006L414.787 466.265C399.844 462.078 385.19 458.313 369.733 456.513C353.516 454.624 337.208 454.95 320.919 454.965L285.925 454.842L285.823 432.297L315.96 432.191L355.125 433.025C365.997 433.783 376.985 435.315 387.675 437.457C410.793 442.091 433.437 449.737 455.969 456.583L491.75 467.708C498.512 469.894 505.41 471.996 512 474.647V496.311Z" fill="white"/>
<path d="M382.908 205.204C381.202 219.843 381.702 234.733 381.732 249.448L381.754 260.445C381.757 261.925 381.977 263.803 381.753 265.235L381.579 357.747L381.255 402.814C381.243 403.357 381.006 405.761 381.285 406.046C381.512 406.279 381.695 406.351 381.99 406.466L381.069 406.626C380.892 407.913 380.907 409.246 380.998 410.542L285.825 400.065L285.957 395.519L286.249 342.543L293.278 344.224L293.543 343.242L293.364 334.638L295.81 299.597L299.757 248.265L300.847 237.743C301.027 236.241 302.153 231.826 301.553 230.587C301.848 230.362 302.641 230.287 303.012 230.204L308.558 229.046L331.733 223.731L348.25 219.507C357.238 216.907 366.058 213.434 374.521 209.459L382.908 205.204Z" fill="#E3B1A6"/>
<path d="M285.957 395.519L286.249 342.543L293.278 344.224C290.975 359.805 299.54 374.255 308.485 386.262L320.72 400.153L285.957 395.519Z" fill="white"/>
<path d="M382.908 205.204C381.202 219.843 381.702 234.733 381.732 249.448L381.754 260.445C381.757 261.925 381.977 263.803 381.754 265.235C379.877 265.879 378.118 267.013 376.345 267.915L365.956 273.283C349.872 281.911 334.171 291.845 320.809 304.377C317.173 307.787 313.873 311.542 310.606 315.299C305.352 321.34 300.462 327.839 296.906 335.043L293.544 343.242L293.364 334.638L295.81 299.597L299.758 248.265L300.847 237.743C301.027 236.241 302.153 231.826 301.553 230.587C301.848 230.362 302.641 230.287 303.012 230.204L308.558 229.046L331.734 223.731L348.25 219.507C357.238 216.907 366.058 213.434 374.521 209.459L382.908 205.204Z" fill="#9F6166"/>
<path d="M491.756 0H512V67.6467V83.782V343.023V347.655V449.574L380.998 410.542C380.907 409.246 380.892 407.913 381.069 406.626L381.99 406.466C381.695 406.351 381.512 406.279 381.285 406.046C381.006 405.761 381.243 403.357 381.255 402.814L381.58 357.747L381.753 265.235C381.977 263.803 381.757 261.925 381.754 260.445L381.732 249.448C381.702 234.733 381.202 219.843 382.908 205.204C383.69 200.939 384.417 196.683 385.514 192.483C387.872 183.445 391.148 174.877 394.679 166.25C398.293 157.416 402.042 149.072 406.682 140.718C407.208 139.943 407.561 139.106 407.943 138.253L455.412 69.5234L455.466 69.5054C461.64 61.4784 467.648 53.0893 472.651 44.2742C477.166 36.3184 480.872 27.9971 484.28 19.5173L491.423 0.283038L491.756 0Z" fill="#140302"/>
<path d="M425.24 169.413L426.431 169.499L426.595 169.695C428.603 171.983 431.827 173.739 434.202 175.711C434.884 176.278 435.737 176.841 436.198 177.602C434.655 179.489 431.853 181.837 429.499 182.515L429.075 182.495L423.813 178.88C421.026 176.831 418.36 174.412 415.251 172.871C418.442 171.061 421.554 169.736 425.24 169.413Z" fill="#FC0A07"/>
<path d="M406.642 179.162C407.859 179.012 410.291 176.276 411.429 175.422C412.652 174.503 413.961 173.693 415.251 172.871C418.359 174.412 421.025 176.831 423.813 178.88L429.075 182.496L429.499 182.516L429.397 220.659L429.383 231.542C429.395 233.288 429.61 235.228 429.405 236.953L429.184 237.12C422.712 242.117 417.9 248.96 412.479 254.994C410.913 256.738 409.357 258.828 407.408 260.134L404.765 261.55L404.475 196.868C404.439 192.213 404.991 187.414 405.991 182.864C406.138 181.599 406.292 180.392 406.642 179.162Z" fill="white"/>
<path d="M406.642 179.162C407.859 179.012 410.291 176.276 411.429 175.422C412.652 174.503 413.961 173.693 415.251 172.871C418.359 174.412 421.025 176.831 423.813 178.88L429.075 182.496C426.174 186.279 421.939 190.514 417.437 192.366L417.309 192.354L409.237 195.338C407.788 195.856 405.991 196.666 404.475 196.868C404.439 192.213 404.991 187.414 405.991 182.864C406.138 181.599 406.292 180.392 406.642 179.162Z" fill="#E3B1A6"/>
<path d="M404.475 196.867C404.439 192.213 404.991 187.413 405.991 182.864C405.987 185.697 406.187 187.976 408.327 190.095C410.245 191.993 412.685 192.415 415.269 192.33C415.957 192.307 416.632 192.204 417.309 192.354L409.237 195.338C407.788 195.855 405.991 196.666 404.475 196.867Z" fill="#9F6166"/>
<path d="M422.366 262.516L450.423 245.523L450.487 227.265L450.731 227.113C453.553 225.32 456.05 222.885 458.364 220.486C464.737 213.88 469.774 206.275 471.768 197.204C473.968 187.201 474.314 176.032 471.9 166.03C470.937 162.04 469.372 158.139 468.033 154.264C469.359 155.785 470.311 158.277 471.182 160.129C476.679 171.809 479.19 184.982 478.316 197.858C476.522 224.31 462.29 242.02 443.082 258.799L434.236 266.263C432.426 267.732 430.007 269.207 428.534 270.992L428.132 418.27L448.216 424.537L448.799 328.76L448.988 308.276L449.036 302.516C449.046 301.612 448.931 300.535 449.17 299.66C452.38 305.477 456.255 311.465 460.682 316.44C463.775 319.916 467.316 323.058 470.896 326.022C471.42 326.456 474.038 328.226 474.154 328.731C474.572 330.543 474.23 333.339 474.234 335.255L474.248 352.976L474.152 431.124C474.154 431.466 474.046 431.91 474.34 432.169C474.774 432.55 476.713 432.994 477.378 433.22L492.258 437.9L496.163 438.968C496.491 429.472 496.009 343.024 497.173 341.588L497.71 341.554C502.47 342.158 507.176 343.026 512 343.024V347.656V449.574L380.998 410.542C380.907 409.246 380.892 407.913 381.069 406.626L381.99 406.466C386.691 407.544 391.304 409.204 395.922 410.596C397.248 410.996 398.928 411.722 400.285 411.868L403.539 412.755L403.465 314.361L403.492 273.714C405.293 273.087 407.025 272.576 408.75 271.733C413.68 269.324 418.038 265.846 422.366 262.516Z" fill="white"/>
<path d="M497.709 341.554C502.47 342.158 507.175 343.026 512 343.024V347.656C507.462 345.847 500.687 346.008 497.709 341.554Z" fill="#E3B1A6"/>
<path d="M491.756 0H512V67.6467V83.782L490.562 94.1401C478.004 100.491 465.713 107.503 454.555 116.115C443.266 124.829 432.833 135.465 428.344 149.336C426.276 155.725 425.092 162.815 426.431 169.499L425.24 169.413C421.554 169.736 418.442 171.061 415.251 172.871C413.962 173.693 412.652 174.503 411.429 175.421C410.291 176.276 407.86 179.012 406.642 179.161C406.292 180.392 406.138 181.599 405.992 182.864C404.992 187.413 404.44 192.213 404.475 196.867L404.766 261.549L407.408 260.133L412.777 260.032C416.16 260.133 419.368 260.961 422.366 262.516C418.038 265.845 413.68 269.323 408.75 271.733C407.025 272.575 405.294 273.087 403.492 273.714L403.466 314.361L403.539 412.755L400.285 411.868C398.928 411.722 397.248 410.996 395.922 410.596C391.304 409.204 386.692 407.544 381.99 406.466C381.695 406.351 381.512 406.279 381.286 406.046C381.006 405.761 381.244 403.357 381.256 402.814L381.58 357.747L381.754 265.235C381.977 263.803 381.757 261.925 381.754 260.445L381.732 249.448C381.702 234.733 381.202 219.843 382.908 205.204C383.69 200.939 384.417 196.683 385.514 192.483C387.872 183.445 391.148 174.877 394.679 166.25C398.294 157.416 402.042 149.072 406.682 140.718C407.208 139.943 407.562 139.106 407.944 138.253L455.412 69.5234L455.466 69.5054C461.64 61.4784 467.648 53.0893 472.651 44.2742C477.166 36.3184 480.872 27.9971 484.28 19.5173L491.423 0.283038L491.756 0Z" fill="#140302"/>
<path d="M403.466 314.361L403.539 412.755L400.285 411.868L400.646 411.566C401.4 411.693 402.09 411.947 402.813 412.188L403.188 411.938L403.25 411.126C403.212 410.236 403.118 409.406 403.128 408.5C402.936 408.874 403.052 408.672 402.766 409.101C402.537 408.312 402.652 407.323 402.742 406.5C402.913 404.941 402.635 403.202 402.956 401.703C402.966 402.555 402.858 403.57 403.126 404.378L403.137 356.704L403.138 346.081C403.138 344.659 403.386 342.675 403.054 341.313C402.49 338.998 402.896 335.643 402.891 333.224C402.889 332.557 402.675 331.476 402.768 330.875C402.775 330.832 403.112 330.304 403.126 330.25C403.423 329.042 403.123 326.896 403.123 325.604C403.122 322.124 403.412 318.455 403.189 315L403.14 314.635L403.466 314.361Z" fill="#030107"/>
<path d="M412.353 161.663C414.029 162.191 415.659 163.19 417.226 163.992C420.021 165.422 423.785 166.92 425.981 169.125L425.239 169.413C421.554 169.736 418.441 171.061 415.251 172.871C413.961 173.693 412.652 174.503 411.429 175.421C410.291 176.276 407.859 179.012 406.642 179.161C407.713 173.165 409.89 167.215 412.353 161.663Z" fill="white"/>
<path d="M404.766 261.55L407.408 260.134L412.777 260.032C416.16 260.133 419.368 260.962 422.366 262.516C418.038 265.846 413.68 269.324 408.75 271.733C407.025 272.576 405.294 273.087 403.492 273.714C400.482 274.418 397.327 274.592 394.283 274.036C396.272 271.243 398.33 268.528 400.608 265.962C401.778 264.642 403.831 263.141 404.679 261.726L404.766 261.55Z" fill="#FC0A07"/>
<path d="M512 67.6467V83.7821L490.562 94.1401C478.004 100.491 465.713 107.503 454.555 116.115C443.265 124.829 432.833 135.465 428.343 149.336C426.275 155.725 425.091 162.815 426.431 169.499L425.239 169.413L425.981 169.125C423.785 166.92 420.021 165.422 417.226 163.992C415.659 163.19 414.029 162.191 412.353 161.663C423.649 135.835 444.883 115.659 467.105 99.0854L480.95 89.0274C491.313 82.0361 502.428 75.7107 512 67.6467Z" fill="#9F6166"/>
<path d="M244.941 0H260.859H294.979H341.153H475.034H491.756L491.423 0.283038L484.28 19.5173C480.872 27.9971 477.166 36.3184 472.651 44.2742C467.648 53.0893 461.64 61.4784 455.466 69.5054L455.412 69.5234L407.944 138.253C407.562 139.106 407.208 139.943 406.682 140.718C402.042 149.072 398.294 157.416 394.679 166.25C391.148 174.877 387.872 183.445 385.514 192.483C384.417 196.683 383.69 200.939 382.908 205.204L374.521 209.459C366.058 213.434 357.238 216.907 348.25 219.507L331.733 223.731L308.558 229.046L303.012 230.204C302.641 230.287 301.848 230.362 301.553 230.587L287.311 233.733C276.987 238.033 263.965 239.771 253.049 237.045C244.405 234.887 237.664 227.499 234.396 219.473C233.326 216.845 232.751 213.642 231.278 211.262L231.143 211.055L195.893 170.552C192.149 166.621 188.667 162.541 184.409 159.129C183.041 158.033 181.761 157.075 179.914 157.287C180.599 157.122 180.929 157.017 181.295 156.387C182.463 154.383 183.333 152.14 184.327 150.039C190.849 136.248 195.552 121.279 198.371 106.297C198.637 104.882 199.572 101.87 199.207 100.599C199.427 99.916 201.242 98.2454 201.812 97.5627L207.833 89.95L219.887 70.7454C220.955 68.2887 221.921 65.7436 223.419 63.5124L224.443 62.2764C226.121 57.9136 230.159 53.6104 233.173 50.0238C232.193 45.7472 229.567 41.8547 227.849 37.8533C235.181 26.1791 240.436 12.9798 244.941 0Z" fill="white"/>
<path d="M248.681 74.2095C252.583 71.7528 255.908 70.1508 260.624 71.2308C265.088 72.2528 269.743 75.3721 272.044 79.3702C272.903 80.8635 273.659 83.2688 273.086 84.9808C272.775 85.9082 271.737 86.7662 270.869 87.1475C270.455 87.3302 270.068 87.4962 269.625 87.3108L267.99 86.2655L267.913 86.0175C267.401 84.6862 266.124 83.1888 265.028 82.2715C260.933 78.8415 257.626 80.1128 253.18 81.6708C252.099 82.0495 250.963 82.4668 249.867 81.9342C248.843 81.4362 248.221 80.4348 247.875 79.3782C247.234 77.4188 247.784 75.9328 248.681 74.2095Z" fill="#030107"/>
<path d="M244.941 0H260.859C259.291 4.61801 256.87 8.7954 254.593 13.0853L240.625 37.7611C238.381 41.6406 236.421 46.9874 233.173 50.0238C232.193 45.7472 229.567 41.8547 227.849 37.8533C235.181 26.1791 240.436 12.9798 244.941 0Z" fill="#E3B1A6"/>
<path d="M224.443 62.2764C224.529 65.6585 225.099 67.7033 227.625 70.0933C231.771 74.016 237.749 75.2713 243.28 75.0853C244.585 75.042 245.783 74.9013 247.051 74.5866L248.681 74.2093C247.784 75.9326 247.234 77.4186 247.875 79.378C248.221 80.4346 248.843 81.436 249.867 81.934C250.963 82.4666 252.099 82.0493 253.179 81.6706C257.625 80.1126 260.933 78.8413 265.028 82.2713C266.124 83.1886 267.401 84.686 267.913 86.0173L267.99 86.2653L267.771 86.186C267.147 85.952 266.597 85.6873 266.016 85.3606C263.387 83.8826 260.388 83.7326 257.535 84.5807C255.37 85.2247 253.037 87.0507 251.833 88.9187L252.128 98.1253C252.328 101.347 252.621 105.059 252.071 108.25L252.02 108.559C251.747 110.097 250.121 112.107 250.328 113.451C249.825 114.281 249.255 114.86 248.552 115.524C248.397 112.42 248.711 109.182 248.715 106.061C248.717 104.495 248.761 102.736 248.192 101.253C247.85 100.363 247.151 99.5827 246.236 99.2567C245.733 99.078 245.193 99.028 244.684 99.2167C242.325 100.089 240.171 101.647 238.047 102.973C235.174 104.765 232.378 106.359 229.247 107.661C226.165 101.845 223.584 95.246 222.781 88.684C222.435 85.8493 222.398 82.9653 222.523 80.112L223.605 67.5126C223.671 66.3458 224.004 64.5504 223.419 63.5124L224.443 62.2764Z" fill="url(#paint0_linear_568_8401)"/>
<path d="M232.327 82.8747C233.057 82.6974 233.913 82.7041 234.649 82.8567C238.423 83.6401 243.511 88.2874 245.551 91.3887C246.209 92.3894 246.546 93.3207 246.265 94.5174C245.973 95.7667 245.253 96.4261 244.214 97.0961L243.905 97.1714C243.279 97.3354 242.626 97.5814 241.975 97.4381C238.174 96.6014 234.139 93.5427 231.981 90.3747C230.977 88.9021 229.87 87.0347 230.305 85.1934C230.573 84.0574 231.363 83.4241 232.327 82.8747Z" fill="#030107"/>
<path d="M226.835 163.847C228.423 164.497 229.697 165.683 231.087 166.663C232.469 167.639 233.935 168.485 235.427 169.278C236.752 170.463 239.021 171.254 240.758 171.485C244.922 172.039 249.498 171.24 253.675 170.866L268.717 169.438C271.817 169.048 275.297 168.035 278.397 168.5L262.742 173.413C259.688 174.422 256.594 175.439 253.766 176.997C250.182 178.969 247.12 181.593 244.351 184.585C242.287 186.814 240.243 189.239 238.895 191.985C236.861 196.126 238.003 200.625 239.449 204.795C243.106 215.337 251.315 224.785 261.375 229.642C267.674 232.683 274.189 233.405 281.103 233.603C283.134 233.661 285.327 233.376 287.311 233.733C276.987 238.033 263.965 239.771 253.049 237.045C244.405 234.887 237.664 227.499 234.396 219.473C233.326 216.845 232.751 213.642 231.278 211.262L231.143 211.055C231.944 209.831 231.723 205.739 231.913 204.116C232.239 201.32 232.695 198.552 232.826 195.736C233.125 189.328 232.311 182.399 230.524 176.25C229.321 172.112 227.691 168.075 226.835 163.847Z" fill="url(#paint1_linear_568_8401)"/>
<path d="M223.419 63.5125C224.004 64.5505 223.671 66.3459 223.605 67.5127L222.523 80.1121C222.398 82.9654 222.435 85.8494 222.781 88.6841C223.584 95.2461 226.165 101.845 229.247 107.661C232.378 106.359 235.174 104.765 238.047 102.973C240.171 101.647 242.325 100.089 244.684 99.2167C245.193 99.0281 245.733 99.0781 246.236 99.2567C247.151 99.5827 247.85 100.363 248.192 101.253C248.761 102.736 248.717 104.495 248.715 106.061C248.711 109.182 248.397 112.42 248.552 115.524C248.326 115.861 247.908 116.741 247.509 116.777C246.871 116.835 246.126 116.485 245.524 116.294C240.955 114.845 238.193 114.151 234.527 117.875C227.975 124.528 225.537 139.167 224.747 148.207C224.272 150.224 224.555 152.508 224.678 154.564C222.191 151.266 221.123 146.885 220.21 142.91C218.727 136.46 217.866 129.933 216.793 123.411L215.693 110.273C214.666 105.255 212.229 100.253 210.141 95.5994L207.833 89.9501L219.887 70.7454C220.955 68.2887 221.921 65.7436 223.419 63.5125Z" fill="white"/>
<path d="M219.887 70.7454C220.249 73.3434 220.057 75.942 219.917 78.552C219.734 81.964 219.524 85.3707 218.985 88.75L216.625 101.535C216.167 104.441 216.151 107.399 215.693 110.273C214.666 105.255 212.229 100.253 210.141 95.5994L207.833 89.95L219.887 70.7454Z" fill="#E3B1A6"/>
<path d="M216.793 123.411C217.866 129.933 218.728 136.46 220.21 142.91C221.124 146.885 222.191 151.266 224.678 154.564C224.555 152.508 224.272 150.224 224.748 148.207L224.756 151.685C224.843 154.495 225.054 157.266 225.426 160.054C225.575 161.181 225.654 162.498 226.262 163.477L226.835 163.847C227.691 168.075 229.321 172.112 230.524 176.25C232.312 182.399 233.125 189.328 232.826 195.736C232.696 198.552 232.24 201.32 231.913 204.116C231.724 205.739 231.944 209.831 231.144 211.055L195.893 170.552C197.999 169.027 199.611 166.822 201.09 164.713C207.229 155.951 211.279 144.933 214.12 134.669L215.946 127.375C216.202 126.088 216.231 124.893 216.701 123.643L216.793 123.411Z" fill="#E3B1A6"/>
<path d="M207.833 89.95L210.141 95.5993C212.229 100.253 214.666 105.255 215.693 110.273L216.793 123.411L216.701 123.643C216.231 124.893 216.202 126.088 215.946 127.375L214.12 134.669C211.279 144.933 207.229 155.951 201.089 164.713C199.611 166.822 197.999 169.027 195.893 170.552C192.149 166.621 188.667 162.541 184.409 159.129C183.041 158.033 181.761 157.075 179.914 157.287C180.599 157.122 180.929 157.017 181.295 156.387C182.463 154.383 183.333 152.14 184.327 150.039C190.849 136.248 195.552 121.279 198.371 106.297C198.637 104.882 199.572 101.87 199.207 100.599C199.427 99.916 201.242 98.2453 201.812 97.5626L207.833 89.95Z" fill="#9F6166"/>
<path d="M250.328 113.451C253.242 110.104 256.701 106.104 261.456 105.725C266.142 105.352 270.555 107.351 274.591 109.516C280.699 112.793 286.472 117.072 291.696 121.629C294.37 123.961 296.904 126.464 299.159 129.207C303.48 134.46 307.26 141.447 313.451 144.643C313.753 144.799 313.913 144.92 314.126 145.183L313.694 145.801C313.26 145.314 312.858 145.123 312.228 144.945C310.198 144.368 307.838 144.27 305.729 143.812C299.854 142.536 294.091 141.025 288.365 139.187C286.522 138.595 284.592 138.167 282.802 137.443C281.213 136.455 279.208 135.992 277.425 135.415C271.386 133.463 265.065 131.384 258.684 132.849C252.751 134.211 246.736 137.754 242.218 141.793C241.283 141.491 240.885 141.698 239.988 142.125L224.756 151.685L224.748 148.207C225.538 139.167 227.976 124.528 234.527 117.875C238.194 114.151 240.955 114.845 245.524 116.294C246.126 116.485 246.872 116.835 247.509 116.777C247.908 116.741 248.326 115.861 248.552 115.524C249.256 114.86 249.826 114.281 250.328 113.451Z" fill="#C50C00"/>
<path d="M242.217 141.793C246.736 137.754 252.751 134.211 258.683 132.849C265.065 131.384 271.386 133.463 277.425 135.415C279.207 135.992 281.213 136.455 282.801 137.443C284.591 138.167 286.522 138.595 288.365 139.187C294.091 141.025 299.853 142.536 305.729 143.812C307.838 144.27 310.198 144.368 312.227 144.945C312.857 145.124 313.26 145.314 313.694 145.801C313.261 146.186 312.715 146.8 312.229 147.087C308.109 150.227 304.573 153.793 300.668 157.163C294.084 162.845 286.699 166.154 278.397 168.5C275.297 168.035 271.817 169.048 268.717 169.438L253.675 170.866C249.498 171.24 244.922 172.04 240.758 171.486C239.021 171.254 236.752 170.463 235.427 169.278C233.935 168.486 232.469 167.639 231.087 166.664C229.697 165.683 228.423 164.497 226.835 163.848L226.261 163.478C225.654 162.498 225.575 161.182 225.425 160.054C225.054 157.266 224.843 154.495 224.756 151.685L239.987 142.126C240.885 141.698 241.283 141.491 242.217 141.793Z" fill="#140302"/>
<path d="M242.218 141.793C246.736 137.754 252.751 134.211 258.684 132.849C265.065 131.384 271.386 133.463 277.425 135.415C279.208 135.992 281.213 136.455 282.802 137.443C278.977 137.589 275.359 138.645 271.654 139.524C261.664 141.895 251.505 144.629 241.126 143.494L241.072 143.066L242.218 141.793Z" fill="white"/>
<path d="M235.427 169.278C235.67 166.19 236.871 162.969 238.525 160.368C240.37 157.463 243.042 155.085 246.158 153.621C249.976 151.829 254.503 151.397 258.639 150.841C264.664 150.03 270.766 149.063 276.854 148.993C286.276 148.886 295.8 149.934 305.197 149.114C306.336 149.014 307.545 148.872 308.626 148.48C309.907 148.015 310.834 147.397 312.23 147.087C308.11 150.227 304.574 153.793 300.668 157.163C294.084 162.845 286.7 166.153 278.398 168.5C275.298 168.035 271.818 169.048 268.717 169.438L253.676 170.866C249.498 171.24 244.922 172.039 240.758 171.485C239.021 171.254 236.752 170.463 235.427 169.278Z" fill="#C50C00"/>
<path d="M294.98 0H341.154H475.034H491.756L491.423 0.283038L484.28 19.5173C480.872 27.9971 477.166 36.3184 472.651 44.2742C467.648 53.0893 461.64 61.4784 455.466 69.5054L455.412 69.5234L407.944 138.253C407.562 139.106 407.208 139.943 406.682 140.718C406.579 140.545 406.516 140.339 406.372 140.197C405.824 139.655 403.952 139.073 403.196 138.664C400.538 137.227 397.972 135.645 395.496 133.915C391.674 131.244 388.388 127.807 385.641 124.061C379.67 115.921 376.151 104.72 377.798 94.62C380.797 76.2327 395.612 63.4934 409.29 52.3754L426.084 39.4154L441.774 28.7752L443.348 27.625C442.286 27.5595 435.432 32.0403 433.847 32.875C431.116 34.3122 428.326 35.4898 425.489 36.6994L404.053 46.0786C390.132 52.2435 375.194 58.6863 359.75 59.2528C350.085 59.6074 337.941 57.6756 332.644 48.5263C331.854 47.1618 331.103 45.6508 330.492 44.197C330.066 43.1823 330.074 42.3711 329.236 41.5943L308.178 51.5852L317.084 40.9167C311.909 42.0639 305.816 42.3321 300.618 41.2774C294.042 39.9432 287.603 35.7413 283.89 30.1269C283.609 29.8723 283.403 29.6004 283.196 29.2851C280.92 25.8261 280.824 21.5653 281.65 17.6309C283.208 10.2131 288.8 4.06908 294.98 0Z" fill="#E3B1A6"/>
<path d="M475.034 0H491.756L491.423 0.283038C489.042 1.0736 486.858 2.92515 484.75 4.27618L473.581 11.3488C466.931 15.3887 459.706 19.1024 452.622 22.3173C451.676 22.7465 448.31 24.5302 447.433 24.0839L447.204 23.9325C445.172 22.9368 441.979 25.2714 439.684 24.5965L439.231 24.4805C438.841 24.3748 438.969 24.4313 438.712 24.2844L438.759 23.7732C451.911 17.3806 463.512 8.92194 475.034 0Z" fill="white"/>
<path d="M407.944 138.254C407.034 137.606 406.43 136.658 405.879 135.701C403.521 131.6 403.392 126.984 404.677 122.508C406.213 117.152 409.581 112.309 412.94 107.942C422.489 95.5262 434.207 85.7922 446.444 76.1688L450.778 72.6362C452.106 71.4688 453.436 70.1268 454.982 69.2542L455.412 69.5235L407.944 138.254Z" fill="white"/>
<path d="M294.98 0H341.154H475.034C463.512 8.92194 451.911 17.3806 438.76 23.7732L424.377 30.0608L401.723 37.8663C384.811 42.9876 363.541 48.2062 346.436 41.148C342.526 39.5344 338.831 37.0784 334.574 36.5188C332.21 37.7973 330.874 39.4755 329.238 41.5594L329.236 41.5943L308.178 51.5852L317.084 40.9167C311.909 42.0639 305.816 42.3321 300.618 41.2774C294.042 39.9432 287.603 35.7413 283.89 30.1269C283.609 29.8723 283.403 29.6004 283.196 29.2851C280.92 25.8261 280.824 21.5653 281.65 17.6309C283.208 10.2131 288.8 4.06908 294.98 0Z" fill="#140302"/>
<path d="M294.98 0H341.154C336.067 6.7488 331.192 14.8069 332.402 23.6437C332.709 25.8863 333.575 28.1659 334.274 30.3128C328.106 28.4695 323.138 25.8109 319.948 19.9418C317.484 15.4081 317.004 9.45267 318.498 4.52356L319.412 1.73959C316.082 6.5557 315.354 11.5406 316.387 17.2591C317.418 22.9667 321.118 28.7121 325.882 31.9665C318.231 33.0046 308.26 32.0911 301.938 27.2875C298.575 24.7323 295.442 20.3247 294.815 16.0705L294.626 12.4465C293.756 13.7324 294.388 17.4473 294.688 18.9647C295.905 25.1483 300.388 29.3064 305.457 32.6626C306.042 33.0501 306.626 33.2881 307.25 33.5884L307.738 33.8532C305.786 33.6349 303.648 33.7187 301.75 33.3353C297.918 32.5608 293.242 29.6993 290.785 26.6519C290.172 25.8909 289.02 23.4616 288.323 23.1233C290.62 28.9599 294.308 32.4423 300.002 34.9469C303.662 36.5575 307.818 36.8402 311.75 37.2141C307.382 37.6934 303.077 38.3839 298.668 37.911C294.614 37.4762 290.448 35.5608 287.275 33.0342C286.393 32.3319 284.854 30.2965 283.89 30.1269C283.609 29.8723 283.403 29.6004 283.196 29.2851C280.92 25.8261 280.824 21.5653 281.65 17.6309C283.208 10.2131 288.8 4.06908 294.98 0Z" fill="#E3B1A6"/>
<path d="M22.4104 512H0V0H235.349H244.941C240.436 12.9798 235.181 26.1791 227.849 37.8533C229.567 41.8547 232.193 45.7472 233.173 50.0238C230.159 53.6104 226.121 57.9136 224.443 62.2764L223.419 63.5124C221.921 65.7436 220.955 68.2887 219.887 70.7454L207.833 89.95L201.812 97.5627C201.242 98.2454 199.427 99.916 199.207 100.599C199.572 101.87 198.637 104.882 198.371 106.297C195.552 121.279 190.849 136.248 184.327 150.039C183.333 152.14 182.463 154.383 181.295 156.387C180.929 157.017 180.599 157.122 179.914 157.287L178.75 156.765C174.871 155.024 172.93 150.257 169.5 147.999L169.084 148.25C169.159 149.184 169.391 149.72 169.857 150.532L170.086 150.923C170.997 152.527 172.338 153.786 173.249 155.343L173.367 155.569C174.045 156.095 174.388 156.435 174.875 157.127L175.265 157.517C176.029 158.27 175.323 157.479 175.749 158.251C175.994 158.697 176.462 158.993 176.749 159.501C177.071 160.071 177.719 160.711 178.123 161.25L178.435 161.627C178.797 162.07 178.678 161.859 178.854 162.309C192.213 180.385 204.217 199.49 215.496 218.917C230.053 243.992 243.301 269.601 254.474 296.375L262.014 315.905L267.893 331.559C272.047 342.805 275.891 354.915 274.041 367.076C272.932 374.357 269.792 381.44 266.641 388.044C265.441 391.458 263.065 394.743 261.194 397.857C258.428 402.457 255.723 407.19 253.673 412.16C247.467 427.216 242.926 443.008 237.423 458.335L226.724 488.072C223.821 495.965 220.646 503.922 218.304 512H202.115H126.859H99.718H73.7894H50.3566H22.4104Z" fill="#140302"/>
<path d="M70.8686 178.478C69.1993 176.832 64.5341 173.462 64.2993 171.125L64.6353 170.836C66.612 169.231 71.7999 169.907 74.2006 170.143L70.8686 178.478Z" fill="white"/>
<path d="M109.167 296.469L104.103 292.949C103.365 292.418 102.401 291.869 102.052 291C102.473 289.982 103.073 289.005 104.106 288.508C106.114 287.543 110.823 289.249 112.861 289.886C111.331 291.867 110.305 294.248 109.167 296.469Z" fill="white"/>
<path d="M112.861 289.886L127.867 297.096C125.361 300.074 122.845 302.58 119.945 305.16C116.396 302.339 112.234 299.813 109.167 296.469C110.305 294.248 111.331 291.867 112.861 289.886Z" fill="#C50C00"/>
<path d="M74.2007 170.143C76.6487 170.833 78.86 171.793 81.0513 173.089C82.076 173.694 83.1533 174.631 84.27 175.007C87.728 177.593 90.6947 180.295 93.488 183.615C90.706 185.424 87.5353 187.062 85.016 189.212C81.8327 187.211 78.7347 184.768 75.75 182.474C74.1053 181.21 72.2787 180.003 70.8687 178.478L74.2007 170.143Z" fill="#FC0A07"/>
<path d="M84.27 175.007C96.8887 175.07 106.946 180.464 116.473 188.375C119.783 191.124 122.993 194.146 126.521 196.61L127.218 196.691C126.065 198.848 124.461 199.878 122.153 200.58C118.271 201.762 114.963 201.77 111.02 200.936C109.079 199.25 107.019 197.003 104.909 195.598C102.623 195.236 95.484 185.786 93.488 183.616C90.6947 180.296 87.728 177.593 84.27 175.007Z" fill="white"/>
<path d="M104.909 195.597L103.135 193.612C105.797 191.345 109.229 189.993 112.781 190.299C116.193 190.592 118.909 193.211 121.534 195.181C122.371 195.809 123.576 196.856 124.652 196.956C125.31 197.017 125.908 196.829 126.521 196.61L127.218 196.691C126.065 198.848 124.461 199.878 122.153 200.58C118.271 201.762 114.963 201.77 111.02 200.935C109.079 199.25 107.019 197.003 104.909 195.597Z" fill="#FC0A07"/>
<path d="M235.349 0H244.941C240.436 12.9798 235.181 26.1791 227.849 37.8533L222.521 46.3128C221.631 47.6486 220.77 49.1229 219.69 50.3094L219.265 50.107L219.625 49.75C220.388 48.5989 219.19 50.0115 219.946 49.1328L220.126 48.9375L219.545 48.4074C218.748 48.3062 217.804 47.8774 217.063 48.0866C217.571 48.3525 218.09 48.5821 218.639 48.7518L218.919 48.8316L219.099 49.2194C218.849 49.2974 218.601 49.3866 218.337 49.4104C217.863 49.4529 217.565 49.3514 217.19 49.0822C216.179 48.3562 214.945 47.8519 213.75 47.5084C212.829 47.244 212.392 47.108 211.708 46.4113C222.518 32.3101 230.929 17.3151 235.349 0Z" fill="white"/>
<path d="M130.977 295.35C145.104 305.932 158.453 317.51 169.958 330.956L181.338 345.065C182.647 346.741 183.791 348.585 185.16 350.201C184.718 351.829 184.276 353.462 183.989 355.126C183.79 356.278 183.76 358.19 183.107 359.164C180.085 353.364 176.049 348.619 171.861 343.657C163.25 333.454 153.886 325.005 142.384 318.116L119.945 305.16C122.845 302.58 125.361 300.074 127.867 297.096L130.977 295.35Z" fill="url(#paint2_linear_568_8401)"/>
<path d="M53.3047 310.335L76.8382 318.837L76.3748 375.333C76.2875 375.592 76.3562 375.448 76.1255 375.743C70.2082 367.463 62.7532 360.224 56.3779 352.275C55.5 351.18 53.8006 349.63 53.2525 348.446C52.9768 347.851 53.2436 342.394 53.2453 341.384L53.3047 310.335Z" fill="white"/>
<path d="M199.207 100.599C199.572 101.87 198.637 104.882 198.371 106.297C195.552 121.279 190.849 136.248 184.327 150.039C183.333 152.14 182.463 154.383 181.295 156.387C180.929 157.017 180.599 157.122 179.914 157.287L178.75 156.765C174.871 155.024 172.93 150.257 169.5 147.999L169.084 148.25C169.159 149.184 169.391 149.72 169.857 150.532L170.086 150.923C170.997 152.527 172.338 153.786 173.249 155.343L173.367 155.569L173.324 155.657L170.849 153.257C169.653 152.333 168.687 152.393 167.257 152.563L167.193 152.567C165.603 151.051 164.323 149.206 162.876 147.555L155.013 139.206C151.739 135.913 147.688 133.299 144.553 129.951C149.862 128.751 155.132 127.627 160.293 125.851C175.167 120.731 187.777 111.164 199.207 100.599Z" fill="#E3B1A6"/>
<path d="M130.977 295.35L124.687 291.094C126.865 290.843 128.941 290.696 131.122 290.992C135.533 291.59 139.871 293.238 143.978 294.894C155.951 299.722 167.49 306.506 177.619 314.502C184.487 319.923 191.604 327.127 195.937 334.782C198.023 337.934 201.04 341.739 202.094 345.372C201.724 345.631 200.345 346.438 200.19 346.778C200.137 353.324 200.838 362.155 195.734 367.183C194.971 367.934 194.197 368.407 193.241 368.881L193.205 368.983L191.25 368.993C189.09 368.892 186.919 366.086 185.565 364.564L183.107 359.164C183.76 358.19 183.789 356.278 183.989 355.126C184.276 353.462 184.717 351.829 185.159 350.201C183.791 348.585 182.647 346.741 181.338 345.065L169.958 330.956C158.453 317.51 145.104 305.932 130.977 295.35Z" fill="white"/>
<path d="M195.937 334.781C198.024 337.933 201.04 341.739 202.094 345.372C201.724 345.631 200.346 346.438 200.19 346.778C199.422 347.174 198.448 347.77 197.571 347.82C195.423 347.941 193.241 345.144 191.626 343.968C190.888 343.431 190.044 343.181 189.173 342.943L188.767 342.835C190.762 339.995 192.908 336.571 195.937 334.781Z" fill="#FC0A07"/>
<path d="M219.69 50.3094C218.791 52.2897 216.843 54.4155 215.459 56.1465C202.045 72.9161 183.173 86.1841 162.825 93.0181C153.347 96.2015 143.367 98.0515 133.446 99.1481C101.281 102.705 69.2919 96.0421 39.1518 85.1101L29.6429 81.5668C28.5508 81.1708 26.7424 80.8168 25.8774 80.1255C27.2404 80.0788 28.5846 80.5755 29.9098 80.8741L37.8694 82.7001L53.825 86.1255C75.6686 90.5168 98.2506 92.6841 120.5 90.9901C144.777 89.1421 169.607 81.4095 189.539 67.1441C197.789 61.2397 205.129 54.1066 211.708 46.4114C212.392 47.1081 212.829 47.244 213.75 47.5085C214.945 47.852 216.179 48.3563 217.19 49.0822C217.565 49.3514 217.863 49.453 218.337 49.4104C218.601 49.3867 218.849 49.2974 219.099 49.2195L218.919 48.8317L218.639 48.7518C218.09 48.5822 217.571 48.3526 217.063 48.0866C217.804 47.8775 218.748 48.3062 219.545 48.4074L220.126 48.9376L219.946 49.1329C219.19 50.0116 220.388 48.599 219.625 49.7501L219.265 50.1071L219.69 50.3094Z" fill="url(#paint3_linear_568_8401)"/>
<path d="M97.3781 326.545L120.424 335.041L120.175 424.626L119.885 424.896C117.822 422.394 115.449 420.066 113.225 417.7L101.996 405.75L98.1161 401.573C97.9554 401.392 97.2908 400.776 97.2261 400.564C96.9808 399.763 97.2168 397.886 97.2148 396.994L97.2141 384.632L97.3781 326.545Z" fill="white"/>
<path d="M73.7894 512L73.676 419.848L99.622 446.932L99.718 512H73.7894Z" fill="white"/>
<path d="M22.4104 512L22.4231 309.346C31.3942 318.196 39.3419 327.811 47.2946 337.567L50.0232 340.954C50.2394 341.233 50.8508 341.874 50.9524 342.182C51.3082 343.263 51.0065 345.782 51.0152 346.979L50.3566 512H22.4104Z" fill="white"/>
<path d="M126.859 512C128.137 508.684 128.632 505.353 130.227 502.07C132.352 497.694 135.145 493.718 137.539 489.494C140.411 484.424 142.533 478.771 143.716 473.066C145.327 465.289 145.511 456.402 143.441 448.686C143.083 447.35 142.65 446 142.053 444.75C141.767 444.152 141.159 443.335 141.095 442.676C140.799 439.617 141.131 436.214 141.155 433.124L141.219 413.394L141.445 342.549L164.077 350.557L163.72 501.402C166.398 495.921 168.273 489.832 170.292 484.076L178.628 461.243L183.302 449.491C184.247 447.225 185.869 444.605 186.253 442.198C186.542 440.396 186.336 438.288 186.343 436.44L186.353 424.208L185.713 371.816C185.312 369.598 185.544 366.838 185.565 364.564C186.919 366.086 189.09 368.892 191.25 368.993L193.205 368.983L193.241 368.881C194.197 368.407 194.971 367.934 195.734 367.183C200.838 362.155 200.137 353.324 200.19 346.778C200.345 346.438 201.724 345.631 202.094 345.372L206.857 354.473L218.122 380.233L220.569 388.75C220.657 391.641 221.219 394.463 221.55 397.332L224.049 421.148C224.388 426.254 224.403 431.43 224.003 436.532C223.772 439.492 223.274 442.477 223.154 445.438C218.423 468.299 209.671 489.99 202.115 512H126.859Z" fill="white"/>
<path d="M185.565 364.564C186.919 366.086 189.09 368.892 191.25 368.993L193.205 368.983C192.963 369.477 193.011 369.551 192.514 369.838C192.089 370.083 191.837 370.354 191.531 370.74L191.234 370.581C189.103 369.421 187.403 367.742 185.873 365.875L185.713 371.816C185.312 369.598 185.544 366.838 185.565 364.564Z" fill="#E3B1A6"/>
<path d="M200.19 346.777C200.345 346.438 201.724 345.631 202.094 345.372L206.857 354.473C206.691 354.732 206.437 354.953 206.36 355.25C206.181 355.944 206.662 357.956 206.712 358.733C206.849 360.887 206.539 362.998 206.211 365.118C205.365 370.589 203.655 375.885 202.559 381.312L199.431 399.167C197.551 408.867 195.081 418.101 191.995 427.488C191.012 430.476 189.936 434.711 188.209 437.341C188.587 435.389 189.317 433.596 189.855 431.695C190.413 429.723 190.725 427.657 190.968 425.625C191.771 418.903 191.875 411.918 191.972 405.155L192.186 381.205L192.215 374.031C192.217 373.34 192.39 371.891 192.093 371.296C191.977 371.063 191.735 370.889 191.531 370.739C191.837 370.353 192.089 370.083 192.514 369.837C193.011 369.551 192.963 369.477 193.205 368.983L193.241 368.881C194.197 368.407 194.971 367.934 195.734 367.183C200.838 362.155 200.137 353.323 200.19 346.777Z" fill="#EECDC2"/>
<path d="M128.175 134.953C125.129 130.848 122.029 126.67 119.946 121.978C129.806 120.291 136.698 124.667 144.553 129.951C147.688 133.299 151.739 135.913 155.013 139.206L162.876 147.555C164.323 149.206 165.603 151.051 167.193 152.567L167.257 152.563C168.687 152.393 169.653 152.333 170.849 153.257L173.324 155.657L173.367 155.569C174.045 156.095 174.388 156.435 174.875 157.127L175.265 157.517C176.029 158.27 175.323 157.479 175.749 158.251C175.994 158.697 176.462 158.993 176.749 159.501C177.071 160.071 177.719 160.711 178.123 161.25L178.436 161.627C178.797 162.07 178.678 161.859 178.854 162.309C192.214 180.385 204.217 199.49 215.496 218.917C230.054 243.992 243.302 269.601 254.474 296.375L262.014 315.905L267.894 331.559C272.048 342.805 275.892 354.915 274.041 367.075C272.932 374.357 269.792 381.44 266.642 388.043C265.442 391.457 263.066 394.743 261.194 397.857C258.428 402.457 255.723 407.19 253.674 412.16C247.467 427.216 242.926 443.008 237.423 458.335L226.724 488.072C223.821 495.965 220.646 503.922 218.304 512H202.115C209.672 489.99 218.424 468.299 223.154 445.438C223.274 442.477 223.772 439.492 224.004 436.532C224.403 431.429 224.388 426.254 224.05 421.148L221.55 397.331C221.22 394.463 220.657 391.641 220.57 388.75L218.122 380.233C218.568 379.514 218.432 378.919 218.281 378.09C217.406 373.288 215.253 368.716 213.986 364.006C212.208 357.397 210.977 350.634 208.613 344.19C203.678 330.733 196.819 317.816 189.33 305.628C180.394 291.085 170.394 277.023 159.477 263.893L125.64 227.029C112.671 213.667 100.257 200.088 85.0161 189.212C87.5354 187.062 90.7061 185.424 93.4881 183.615C95.4841 185.785 102.623 195.235 104.909 195.597C107.019 197.003 109.079 199.25 111.02 200.935C114.963 201.77 118.271 201.762 122.153 200.58C124.461 199.878 126.065 198.848 127.218 196.691C130.171 197.999 132.783 200.147 135.314 202.124C142.419 207.675 148.769 214.025 155.475 220.03C169.502 232.594 183.959 244.677 197.214 258.087L203.954 265.437C204.115 261.868 188.193 235.516 185.645 230.732C178.322 216.978 171.715 202.733 163.623 189.407L144.82 159.47C140.931 153.488 136.583 147.682 133.223 141.384C131.635 139.169 129.633 137.248 128.175 134.953Z" fill="#9F6166"/>
<path d="M220.569 388.75C226.544 404.374 233.989 423.84 226.677 440.151C225.813 442.08 224.811 444.077 223.154 445.438C223.274 442.477 223.772 439.492 224.003 436.532C224.403 431.43 224.388 426.254 224.049 421.148L221.55 397.332C221.219 394.463 220.657 391.641 220.569 388.75Z" fill="#E3B1A6"/>
<path d="M127.218 196.691C130.171 197.999 132.783 200.147 135.314 202.124C142.419 207.675 148.769 214.025 155.475 220.03C169.502 232.594 183.959 244.677 197.213 258.087L203.954 265.437C204.921 267.037 206.243 268.497 207.309 270.048L213.765 280.182L223.792 298.153C232.865 314.426 241.959 331.156 247.967 348.853C252.293 361.591 254.295 375.765 252.541 389.176C251.909 394.013 250.634 398.821 249.273 403.497C248.097 407.541 246.949 411.672 245.089 415.457C244.319 413.533 243.801 411.467 243.165 409.49L238.777 396.024C231.813 375.735 224.874 355.178 215.724 335.75C210.243 324.113 203.817 312.828 196.494 302.25L180.801 281.151C168.821 265.192 156.368 249.683 142.866 234.97L126.749 217.573L116.353 206.791C114.557 204.882 112.635 202.999 111.02 200.935C114.963 201.77 118.271 201.762 122.153 200.58C124.461 199.878 126.065 198.848 127.218 196.691Z" fill="white"/>
<path d="M128.175 134.953C125.129 130.848 122.029 126.67 119.946 121.978C129.806 120.291 136.698 124.667 144.553 129.951C147.688 133.299 151.739 135.913 155.013 139.206L162.876 147.555C164.323 149.206 165.603 151.051 167.193 152.567L167.257 152.563C168.687 152.393 169.653 152.333 170.849 153.257L173.324 155.657L173.367 155.569C174.045 156.095 174.388 156.435 174.875 157.127L175.265 157.517C176.029 158.27 175.323 157.479 175.749 158.251C175.994 158.697 176.462 158.993 176.749 159.501C177.071 160.071 177.719 160.711 178.123 161.25L178.435 161.627C178.797 162.07 178.678 161.859 178.854 162.309C192.213 180.385 204.217 199.49 215.496 218.917C230.053 243.992 243.301 269.601 254.474 296.375L262.014 315.905L267.893 331.559C272.047 342.805 275.891 354.915 274.041 367.075C272.932 374.357 269.792 381.44 266.641 388.043C265.886 387.035 265.581 385.353 265.227 384.151L262.857 376.155C260.347 368.032 257.087 360.17 254.017 352.25C248.171 337.169 240.817 322.694 233.822 308.125L221.687 283.167L206.743 252.749L187.41 219.508L176.091 197.746L160.019 168.925C158.639 167.413 155.245 164.845 154.749 163.034C154.301 163.513 154.445 163.404 153.875 163.439C150.645 160.601 147.703 156.877 144.937 153.581L134.657 141.255L133.223 141.384C131.635 139.169 129.633 137.248 128.175 134.953Z" fill="white"/>
<path d="M167.257 152.563C168.687 152.393 169.653 152.333 170.849 153.257L173.324 155.657L173.367 155.569C174.046 156.095 174.388 156.435 174.875 157.127L175.265 157.517C176.03 158.27 175.324 157.479 175.749 158.251C175.994 158.697 176.462 158.993 176.749 159.501C177.071 160.071 177.72 160.711 178.123 161.25L178.436 161.627C178.797 162.07 178.678 161.859 178.854 162.309C178.846 162.765 178.796 162.619 178.968 162.995C179.286 163.689 179.537 164.253 179.714 165C179.28 165.64 179.104 165.562 178.375 165.733C176.956 164.831 175.953 163.345 174.868 162.079L167.257 152.563Z" fill="#030107"/>
<path d="M128.175 134.953L129.483 131.5C130.667 128.468 132.197 126.667 135.199 125.359C136.927 125.773 138.283 126.949 139.625 128.043L146.532 134.181C142.466 136.634 139.085 139.375 134.657 141.255L133.223 141.384C131.635 139.169 129.633 137.248 128.175 134.953Z" fill="#FC0A07"/>
<path d="M154.749 163.034C157.633 159.401 161.997 157.199 166.459 156.194C170.719 157.902 174.447 162.829 176.961 166.597C171.495 168.508 165.831 170.131 160.019 168.925C158.639 167.413 155.245 164.845 154.749 163.034Z" fill="#FC0A07"/>
<path d="M146.532 134.181C150.748 137.808 154.099 141.765 157.609 146.054C152.979 148.11 148.996 150.555 144.937 153.581L134.657 141.255C139.085 139.375 142.466 136.634 146.532 134.181Z" fill="#140302"/>
</g>
<defs>
<linearGradient id="paint0_linear_568_8401" x1="226.207" y1="104.623" x2="249.195" y2="71.7286" gradientUnits="userSpaceOnUse">
<stop stop-color="#A86568"/>
<stop offset="1" stop-color="#DFA59E"/>
</linearGradient>
<linearGradient id="paint1_linear_568_8401" x1="266.627" y1="166.789" x2="244.325" y2="233.605" gradientUnits="userSpaceOnUse">
<stop stop-color="#924B56"/>
<stop offset="1" stop-color="#C38885"/>
</linearGradient>
<linearGradient id="paint2_linear_568_8401" x1="149.463" y1="294.139" x2="155.968" y2="360.404" gradientUnits="userSpaceOnUse">
<stop stop-color="#884C53"/>
<stop offset="1" stop-color="#AC6066"/>
</linearGradient>
<linearGradient id="paint3_linear_568_8401" x1="131.658" y1="99.0441" x2="125.58" y2="60.3109" gradientUnits="userSpaceOnUse">
<stop stop-color="#E6B3A6"/>
<stop offset="1" stop-color="#F5D4CB"/>
</linearGradient>
<clipPath id="clip0_568_8401">
<rect width="512" height="512" rx="256" fill="white"/>
</clipPath>
</defs>
</svg>
