<svg width="505" height="510" viewBox="0 0 505 510" fill="none" xmlns="http://www.w3.org/2000/svg">
<g clip-path="url(#clip0_568_8925)">
<path d="M-7 139.208V0H135.435H172.581H182.979H302.017H308.147H311.807H320.192H348.19H360.945H369.74H383.008H505V375.02V402.444V512H483.785H465.401H448.123H427.504H413.026H292.381H211.619H201.601H180.264H20.0097H-7V500.81V483.005V462.85V448.944V421.692V402.286V374.915V345.683V317.197V302.619V292.597V276.967V248.68V221.778V194.025V167.971V139.208Z" fill="white"/>
<path d="M148.565 308.875C149.111 308.835 149.738 308.744 150.262 308.929C150.831 309.13 151.215 309.499 151.398 310.082C151.629 310.82 151.56 311.941 151.186 312.626C150.746 313.432 150.215 313.722 149.375 314.006C148.896 314.072 148.423 314.057 147.953 313.932C147.382 313.779 146.85 313.324 146.586 312.796C146.212 312.046 146.238 311.308 146.548 310.555C146.937 309.608 147.652 309.22 148.565 308.875Z" fill="#EC000E"/>
<path d="M171.928 297.626L172.143 297.588C173.299 297.42 174.187 297.786 175.088 298.508C175.952 299.201 176.314 299.849 176.402 300.94C176.006 301.723 175.612 301.939 174.875 302.334C174.499 302.439 174.117 302.488 173.726 302.51C172.833 302.558 171.792 302.294 171.158 301.626C170.617 301.056 170.377 300.41 170.532 299.626C170.704 298.752 171.264 298.158 171.928 297.626Z" fill="#F30916"/>
<path d="M261.809 166.322L262.658 166.401C264.49 166.641 266.314 167.85 267.391 169.337C268.143 170.377 268.542 172.135 268.172 173.376C267.699 174.959 265.192 175.677 263.817 176.176C262.596 176.418 261.438 176.463 260.321 175.85C259.019 175.135 257.924 173.99 257.561 172.534C257.223 171.182 257.331 169.561 258.103 168.375C258.941 167.087 260.39 166.638 261.809 166.322Z" fill="#080400"/>
<path d="M282.887 115.994C289.547 117.576 295.534 121.967 301.678 124.879C303.435 125.711 305.316 126.322 307.225 126.69C307.928 126.825 308.986 126.809 309.625 127.049C310.041 127.204 310.573 127.811 310.997 128.067C310.643 128.807 310.78 130.028 310.696 130.875C309.306 131.311 307.839 131.031 306.465 130.652C300.424 128.983 295.196 126.037 290.374 122.024C288.687 120.62 287.097 118.831 285.233 117.691C284.391 117.176 283.655 116.611 282.887 115.994Z" fill="#BE95A1"/>
<path d="M237.364 165.793C238.766 165.716 239.728 165.791 240.959 166.501C242.171 167.199 243.274 168.231 243.588 169.643C243.886 170.979 243.516 172.723 242.716 173.838C241.505 175.523 239.694 176.031 237.758 176.319C236.906 176.312 236.004 176.333 235.17 176.145C233.864 175.851 232.029 174.986 231.401 173.717C230.854 172.613 231.174 171.06 231.71 170.017C232.906 167.689 235.01 166.595 237.364 165.793Z" fill="#080400"/>
<path d="M177.03 228.981L177.218 229.169C178.577 230.463 180.564 230.955 182.271 231.652C186.796 233.499 191.489 236.825 191.797 242.184C191.888 243.783 191.232 245.018 190.379 246.311L182.647 243.557C181.186 243.001 179.312 242.015 177.775 241.937C176.425 239.286 174.271 233.807 174.6 230.875C175.234 229.839 176.004 229.563 177.03 228.981Z" fill="#F30916"/>
<path d="M171.275 182.533C173.754 183.477 176.92 185.953 178.621 188.02C181.463 191.473 183.767 197.749 183.221 202.205C183.087 203.295 182.556 204.706 181.625 205.361C180.725 205.993 179.509 206.161 178.441 205.943C175.882 205.423 173.504 203.303 172.032 201.206C170.151 198.527 168.967 195.175 168.238 192C168.007 190.995 167.657 189.393 167.753 188.353C167.927 186.475 170.829 184.924 171.022 182.989L171.045 182.565L171.275 182.533Z" fill="#F30916"/>
<path d="M304.73 341.625L305.292 341.637L305.396 341.815C305.67 342.459 305.528 343.703 305.528 344.422L305.248 351.725L301.043 388.787L296.02 431.75C295.302 437.03 295.028 443.356 293.208 448.375L292.901 448.407L292.58 447.875C292.335 442.114 292.864 436.288 293.274 430.542L295.082 407.516C296.658 389.518 298.252 371.548 301.461 353.75L303.094 345.906C303.472 344.4 303.781 342.888 304.73 341.625Z" fill="#F30916"/>
<path d="M157.402 191.114C155.2 189.717 153.221 188.382 151.427 186.466C147.944 182.743 144.671 177.201 144.996 171.914C145.078 170.593 145.729 169.469 146.734 168.625C148.823 166.869 151.948 166.667 154.563 166.865C164.203 167.599 165.719 176.103 171.044 182.267L171.275 182.533L171.045 182.565C170.617 182.427 170.261 182.177 169.827 182.369C169.023 182.725 168.321 183.507 167.663 184.085C166.563 185.049 165.521 185.874 164.25 186.605C162.873 187.395 161.424 187.943 159.926 188.459C158.967 188.788 157.845 189.032 157.014 189.625C157.071 190.367 157.289 190.468 157.773 191.011L157.402 191.114Z" fill="#EC000E"/>
<path d="M209.023 220.125C210.988 218.531 212.807 216.923 214.497 215.029C220.308 208.519 225.203 200.619 232.961 196.169C235.563 194.676 238.461 193.721 241.493 194.03C245.21 194.41 247.417 198.785 250.057 201.067C251.398 198.477 252.643 195.33 255.702 194.411C258.673 193.518 261.874 194.714 264.426 196.213C274.29 202.01 278.777 212.582 286.483 220.451C284.471 219.825 282.399 218.065 280.569 216.942C274.218 213.045 266.087 208.854 258.433 208.972C256.284 209.005 254.253 209.569 252.279 210.39C251.7 210.631 250.173 211.582 249.651 211.602C249.43 211.61 246.956 210.141 246.605 209.985C240.034 207.055 232.409 209.117 226.17 211.965L213.471 218.304C212.099 218.958 210.8 220.004 209.245 220.117L209.023 220.125Z" fill="#F30916"/>
<path d="M209.023 220.125L209.246 220.117C210.8 220.004 212.1 218.958 213.472 218.304L226.17 211.965C232.409 209.117 240.034 207.055 246.606 209.985C246.956 210.141 249.43 211.61 249.652 211.602C250.174 211.582 251.7 210.631 252.28 210.39C254.254 209.569 256.284 209.005 258.433 208.972C266.088 208.854 274.218 213.045 280.57 216.942C282.4 218.065 284.472 219.825 286.484 220.451C287.417 221.163 288.88 221.994 289.456 223L288.464 223.973C284.304 224.891 278.883 223.966 274.633 223.678C269.484 223.329 264.017 223.146 258.906 223.911C255.05 224.487 252.299 225.689 249.941 228.894C248.746 227.656 248.172 226.439 246.629 225.443C244.768 224.243 242.388 223.743 240.204 223.497C233.466 222.739 226.325 224.089 219.575 224.515C217.039 224.674 214.262 224.958 211.773 224.314L210.231 223.948C209.65 223.479 207.384 221.822 207.255 221.155L209.023 220.125Z" fill="#080400"/>
<path d="M152.69 299.625C153.034 299.568 153.305 299.573 153.651 299.587C153.073 300.325 152.115 300.874 151.356 301.419C153.445 302.691 155.799 303.249 157.986 304.298C160.317 305.416 162.51 306.903 164.671 308.317C168.143 310.59 171.937 313.106 174.325 316.571C176.961 320.398 178.698 325.073 180.467 329.351C190.324 353.18 195.162 378.559 198.397 404.041C199.277 410.977 200.006 417.823 200.014 424.823C200.018 427.754 200.106 430.687 199.563 433.578L197.934 423.439C193.047 396.674 186.263 369.206 174.246 344.665L164.559 326.084C161.157 319.854 157.657 312.328 152.189 307.663C147.967 304.06 142.977 302.024 137.796 300.255C142.781 299.847 147.865 301.115 152.69 299.625Z" fill="#080400"/>
<path d="M210.231 223.948L211.773 224.314C214.262 224.958 217.039 224.674 219.575 224.515C226.325 224.09 233.465 222.739 240.203 223.498C242.387 223.744 244.768 224.243 246.629 225.444C248.172 226.44 248.746 227.656 249.941 228.894C252.299 225.689 255.049 224.488 258.906 223.911C264.017 223.146 269.484 223.33 274.633 223.678C278.883 223.966 284.304 224.892 288.463 223.973C284.562 228.749 281.04 233.497 276.022 237.214C265.715 244.85 252.484 246.711 239.969 244.762C227.275 242.784 217.586 233.965 210.231 223.948Z" fill="#F30916"/>
<path d="M317.89 62.3474C322.68 61.8667 327.24 62.4814 331.609 64.5332C338.23 67.642 345.741 75.058 348.279 81.982C347.777 81.6573 347.304 80.8193 346.934 80.338C346.006 79.1293 345.117 77.9486 344.026 76.876C339.751 72.6733 332.997 70.79 327.125 70.8793C316.483 71.0413 309.534 77.97 302.557 85.094L292.657 95.2126C288.586 99.3806 284.561 103.869 280.055 107.563C279.36 108.133 277.649 109.611 276.788 109.695C276.117 109.761 274.762 109.266 274.04 109.145C271.536 108.727 269.227 109.248 266.802 109.829L267.187 95.5593C267.424 92.228 267.618 87.556 269.789 84.8453C272.423 81.5553 276.861 79.1406 280.456 76.9946C284.274 74.716 288.023 72.2966 292.005 70.3086C299.906 66.3654 309.128 63.341 317.89 62.3474Z" fill="#080400"/>
<path d="M213.78 127.429L219.25 122.987C228.022 115.163 234.363 104.467 235.135 92.6381C235.416 92.2461 235.715 92.1961 236.135 92.0068C239.577 90.4581 242.772 88.4601 246 86.5195L259.282 77.9048C273.278 67.9381 286.239 56.2366 295.867 41.8902C299.431 36.5804 302.517 30.6731 305.111 24.841C306.631 21.4256 307.767 17.8381 309.089 14.343C309.727 15.8746 309.477 17.7536 309.406 19.3918C309.047 27.6046 306.937 35.9024 303.812 43.5007C301.691 48.6574 298.749 53.3234 295.811 58.032C293.657 61.486 291.529 65.1149 288.747 68.1068C286.531 70.4894 283.956 72.3854 281.223 74.1348C275.907 77.5375 270.34 80.1935 265.739 84.6255C261.901 88.3214 258.669 92.6688 255.218 96.7201C247.947 105.258 240.606 113.525 231 119.517C226.149 122.543 220.879 124.82 215.597 126.978C214.967 127.235 214.455 127.372 213.78 127.429Z" fill="#DAB1B9"/>
<path d="M186.26 306.969C192.153 310.879 197.898 314.883 204.418 317.697C206.027 320.353 206.91 324.326 207.854 327.325L213.983 347.75C222.595 378.125 231.536 408.918 234.689 440.432L235.911 460.778L236.14 477.375C235.736 477.058 234.958 471.716 234.778 470.858L228.632 441.04L222.484 414.757L210.355 369.704C206.039 356.209 200.559 343.246 195.299 330.111L186.26 306.969Z" fill="#080400"/>
<path d="M111.766 302.532C112.123 301.724 112.181 301.098 113 300.718C114.705 301.071 116.127 302.499 117.444 303.564C120.027 305.654 122.562 307.553 124.6 310.226L133.223 317.235L-7 317.197V302.62L111.766 302.532Z" fill="#080400"/>
<path d="M111.766 302.532C112.123 301.724 112.181 301.098 113 300.718C114.705 301.071 116.127 302.499 117.444 303.564C120.027 305.654 122.562 307.553 124.6 310.226C123.294 310.664 122.124 311.478 120.938 312.174C118.92 312.041 116.395 310.747 114.87 309.474C112.495 307.491 112.027 305.46 111.766 302.532Z" fill="#F30916"/>
<path d="M-7 345.683L154.145 345.58L146.941 330.608C145.923 328.323 144.817 326.012 144.121 323.605C141.459 322.48 138.561 321.245 136.191 319.574C135.8 319.298 134.991 318.809 134.777 318.384C136.489 319.178 138.205 319.904 140 320.492C142.503 321.312 144.713 321.742 146.627 323.698C149.5 326.632 151.461 331.199 153.34 334.84L160.807 349.626C170.843 370.073 181.147 390.196 189.006 411.621C191.231 417.688 193.381 423.862 194.983 430.126L198.213 445.14L206.825 487.505L211.619 512H201.601L199.875 501.681L195.503 478.375L189.964 449.791L179.471 409.717L171.582 386.509C170.276 382.82 168.762 379.083 167.756 375.304L167.673 374.984L-7 374.915V345.683Z" fill="#080400"/>
<path d="M-7 374.915L167.673 374.983L167.756 375.304C168.762 379.083 170.276 382.82 171.582 386.509L179.471 409.717L189.964 449.791L195.503 478.375L199.875 501.681L201.601 512H180.264C177.913 486.084 173.496 460.228 169.259 434.557L165.445 412.578C164.46 407.281 163.547 401.501 161.589 396.482C158.142 397.133 154.743 398.242 151.311 399.005L129.204 402.979C125.785 403.509 122.321 404.222 118.875 404.498C115.349 404.781 111.794 403.99 108.303 403.579C103.261 402.985 98.1614 402.489 93.0807 402.455L-7 402.285V374.915Z" fill="white"/>
<path d="M310.762 270.294C310.229 271.82 309.461 273.322 308.859 274.832L300.109 295.867L285.74 338.774C281.91 351.97 278.539 365.253 276.311 378.826C274.957 387.072 274.003 395.454 273.552 403.801L271.847 441.092C270.532 455.448 267.03 469.391 263.941 483.431L253.545 422.693C246.393 393.061 237.687 363.62 226.581 335.206L213.216 302.09L208.776 291.419C207.577 288.612 206.243 285.878 205.369 282.945C217 289.342 229.637 294.256 242.934 295.576C248.827 296.161 255.277 296.188 261.125 295.184C272.844 293.174 283.355 287.964 293.49 281.949C299.535 278.361 305.297 274.742 310.762 270.294Z" fill="#080400"/>
<path d="M-7 402.285L93.0807 402.455C98.1614 402.49 103.261 402.985 108.303 403.58C111.794 403.99 115.349 404.782 118.875 404.498C122.321 404.222 125.785 403.51 129.204 402.979L151.311 399.005C154.743 398.242 158.142 397.133 161.589 396.482C163.547 401.501 164.46 407.282 165.445 412.578L169.259 434.558C173.496 460.228 177.913 486.084 180.264 512H20.0097H-7V500.81V483.005V462.85V448.944V421.692V402.285Z" fill="#080400"/>
<path d="M-7 500.81L20.0254 500.939L20.0097 512H-7V500.81Z" fill="white"/>
<path d="M-7 462.85L20.4845 462.953L20.1539 483.03L-7 483.005V462.85Z" fill="white"/>
<path d="M-7 421.692L25.3264 421.676L34.375 421.674C35.909 421.678 37.6083 421.855 39.125 421.672C39.6903 421.603 40.0594 421.388 40.5497 421.126C47.1453 417.59 53.8924 413.818 61.25 412.086L61.8747 411.911V412.14C61.488 412.398 61.382 412.434 60.9534 412.538C60.5174 412.643 60.164 412.778 59.75 412.948C56.2624 414.376 52.816 415.683 49.4974 417.508C39.589 422.955 30.4358 432.135 25.6632 442.436L23.1417 448.85L-7 448.944V421.692Z" fill="white"/>
<path d="M292.381 512L318.859 395.438C327.783 398.11 336.359 400.633 345.673 401.717C352.756 402.542 359.905 402.32 367.024 402.347L397.738 402.446L505 402.444V512H483.785H465.401H448.123H427.504H413.026H292.381Z" fill="#080400"/>
<path d="M413.026 512L412.765 415.801L427.224 415.751L427.504 512H413.026Z" fill="white"/>
<path d="M465.4 418.912L484.165 430.013L483.785 512H465.401L465.4 418.912Z" fill="#F30916"/>
<path d="M448.123 512L448.018 415.906C452.459 416.317 456.968 417.152 461.374 417.844C462.269 417.985 464.267 418.066 465 418.473C465.174 418.569 465.266 418.766 465.4 418.912L465.401 512H448.123Z" fill="white"/>
<path d="M320.242 0H348.231H360.983H369.776H383.04H505V375L321.628 374.923C319.273 364.621 317.169 354.428 316.243 343.875C315.33 333.475 315.773 322.823 315.787 312.388C315.806 298.498 315.554 284.55 316.551 270.689C316.671 269.023 316.562 266.48 317.08 264.936C317.218 264.524 317.889 264.052 318.222 263.757L322.276 260.069C326.752 255.787 330.81 251.176 334.327 246.067C339.675 238.298 343.454 229.052 346.062 220.007C347.016 216.697 347.604 213.242 348.759 210.003L349.43 210.406L349.735 210.575C350.187 210.829 350.652 211.096 351.167 211.202C355.035 211.998 361.128 209.799 364.264 207.656L364.606 207.421C369.074 208.348 373.476 208.518 377.967 209.115C383.667 209.873 389.559 211.287 394.696 213.935C397.453 215.356 399.818 217.221 402.438 218.841C402.933 219.146 403.767 219.771 404.31 219.925C405.085 220.146 406.466 219.93 407.288 219.892C410.813 219.728 414.179 219.485 417.621 218.654C429.278 215.843 440.735 206.957 446.915 196.717C450.173 191.316 451.298 185.614 451.405 179.373C451.443 177.19 451.436 174.738 450.924 172.616C450.497 172.884 450.098 175.344 449.953 175.921C448.944 179.947 447.41 183.788 445.382 187.413C439.655 197.65 429.766 206.501 418.321 209.695C410.228 211.954 400.865 211.296 393.517 207.078C384.962 202.166 378.579 193.913 374.016 185.321C372.56 182.579 371.067 179.663 370.277 176.644L370.206 176.361L367.976 180.365C364.419 185.664 358.794 189.645 352.548 190.927C354.448 183.833 355.308 176.482 355.965 169.181C357.094 156.649 357.242 143.943 356.616 131.375L355.277 112.684L354.29 112.99C352.612 113.525 351.608 114.963 350.012 115.745C347.407 117.021 344.376 117.568 341.936 119.099C344.089 118.929 346.151 118.788 348.311 118.989C344.826 119.922 341.443 119.469 338.024 120.769C340.425 121.645 343.065 121.993 345.326 123.213C340.761 123.238 336.766 122.512 332.176 123.378C334.64 124.226 337.006 124.81 339.427 125.884C336.309 125.899 333.059 124.557 330.14 123.538C331.406 125.288 333.027 126.313 333.939 128.397L331.921 126.582C331.141 125.994 329.452 124.808 328.501 124.949C328.471 125.386 330.396 126.751 330.777 127.493L330.547 127.69C327.916 126.334 325.573 125.474 322.653 124.916C324.861 126.485 326.757 127.621 328.73 129.551C326.423 128.791 324.095 126.936 321.924 125.771L321.618 126.119C321.981 127.525 322.742 128.528 323.495 129.743L323.299 129.987C322.834 129.443 320.713 127.581 320.603 127.119C320.458 126.509 320.76 126.396 320.424 125.763C319.92 126.004 319.521 126.201 318.958 126.247C318.378 126.293 318.671 126.176 318.175 126.572C318.698 127.493 319.49 128.178 319.999 129.119C319.866 129.776 319.988 129.869 319.424 130.291C318.812 128.091 317.344 126.85 315.573 125.549L317.116 131.243L316.801 131.481C316.077 130.844 316.005 129.245 315.611 128.312C315.307 127.591 314.718 127.037 314.177 126.489L313.579 126.619L313.621 127.368L313.301 127.702L313.078 127.493L313.227 126.743C312.624 126.274 310.586 126.704 309.754 126.773C310.204 127.039 310.626 127.279 311.109 127.481L312.302 128.006C312.867 128.322 313.323 128.751 313.535 129.368L313.177 129.527L311.049 128.061C310.625 127.805 310.094 127.197 309.678 127.042C309.039 126.803 307.981 126.819 307.278 126.683C305.37 126.315 303.489 125.705 301.733 124.872C295.59 121.96 289.604 117.57 282.946 115.988C281.405 115.536 279.734 114.943 278.132 114.819C276.798 114.716 275.334 114.939 274 115.055C278.157 113.161 282.63 112.853 287.102 112.212C293.601 111.281 300.1 110.333 306.679 110.341C307.408 110.344 308.761 110.456 309.427 110.261C310.016 110.088 310.777 109.324 311.253 108.916C312.333 107.988 313.436 107.042 314.684 106.345C317.538 104.751 321.755 104.645 324.205 102.655C323.891 101.009 317.721 98.9976 316.155 98.2156C314.74 97.5083 313.335 96.6763 312.138 95.6344C310.74 94.4198 309.904 92.9259 308.978 91.35C308.693 90.7967 308.639 90.7007 308.678 90.086C309.758 89.2634 310.953 88.9408 312.228 88.5434C317.228 86.0096 324.17 86.9649 329.306 88.6581C335.561 90.7193 340.097 94.5411 344.88 98.9029C345.791 99.7349 347.168 100.679 347.8 101.713C348.227 101.661 348.005 101.732 348.443 101.438L348.907 87.1422C349.236 73.1916 348.902 59.6148 346.711 45.7999C346.05 41.632 345.32 37.4605 344.039 33.4314C339.847 20.2544 331.463 8.14405 320.242 0Z" fill="#080400"/>
<path d="M322.031 120.965L312.171 124.415C314.775 122.537 315.834 121.492 315.717 118.211C315.699 117.675 315.592 117.39 315.874 116.897L316.551 117.214C316.687 118.213 317.172 119.362 318.125 119.873L318.501 119.999L319 120.373L319.283 120.358C319.693 120.36 319.545 120.338 319.869 120.499C320.233 120.68 320.481 120.641 320.877 120.625L321.25 120.873L322.031 120.965Z" fill="white"/>
<path d="M316.552 117.214C319.987 117.879 323.435 118.504 326.952 118.217C328.336 118.105 329.762 117.671 331.128 117.405C328.124 119.151 325.164 119.683 322.032 120.965L321.25 120.873L320.878 120.625C320.482 120.641 320.233 120.68 319.869 120.499C319.545 120.338 319.693 120.36 319.283 120.358L319 120.373L318.502 119.999L318.126 119.873C317.172 119.362 316.688 118.213 316.552 117.214Z" fill="#F2F0F3"/>
<path d="M300.933 114.125L301.689 114.039C301.673 114.545 301.705 114.374 301.616 114.775C301.223 116.525 300.94 118.677 301.727 120.357C302.94 122.947 306.145 123.961 308.631 124.801C305.601 124.82 302.983 123.379 300.379 121.995L290.036 115.964C291.302 115.364 293.893 115.572 295.372 115.403C297.129 115.201 298.787 114.841 300.465 114.283L300.933 114.125Z" fill="#DAB1B9"/>
<path d="M312.177 88.548C317.178 86.014 324.121 86.9693 329.259 88.6627C335.515 90.724 340.053 94.546 344.837 98.908C345.749 99.74 347.126 100.685 347.758 101.718L347.733 101.805C347.884 102.03 347.937 102.073 348.011 102.375C348.154 102.961 348.036 103.559 347.756 104.064C346.219 103.818 337.211 96.2167 335.014 94.7907C332.497 93.156 329.87 91.7847 327.042 90.7713C322.085 88.9967 317.577 89.1527 312.457 88.5813L312.177 88.548Z" fill="url(#paint0_linear_568_8925)"/>
<path d="M414.557 229.755C413.077 227.542 411.154 225.553 409.379 223.57C419.012 222.288 428.514 218.355 436.339 212.617C438.31 211.172 440.119 209.441 441.943 207.817C439.629 212.353 435.044 217.056 431.125 220.268C429.514 221.588 427.803 222.729 426.045 223.84C425.102 224.434 423.369 225.172 422.863 226.135C420.745 227.722 417.683 228.683 415.166 229.471C414.755 229.6 414.917 229.53 414.557 229.755Z" fill="url(#paint1_linear_568_8925)"/>
<path d="M447.521 223.625L447.78 223.82C447.674 224.238 447.551 224.572 447.335 224.95C442.197 233.953 431.23 241.968 421.375 244.888L421.126 244.2L419.855 238.507C430.548 236.314 438.638 229.409 447.521 223.625Z" fill="white"/>
<path d="M390.587 278.674C390.441 278.89 390.189 279.403 390.001 279.547C389.162 280.188 388.361 279.933 388.125 281.128C388.873 281.346 389.649 281.348 390.375 281.628C390.964 281.855 391.163 281.854 391.767 281.827C392.032 281.815 392.907 281.781 393.125 281.878C393.833 282.191 394.234 282.955 395.067 283.216C385.184 288.766 374.085 291.27 362.833 291.68C356.503 291.816 351.147 291.108 345.137 289.13C351.301 289.269 356.861 289.039 362.989 288.321L371.972 286.165C378.465 284.322 384.541 281.638 390.587 278.674Z" fill="url(#paint2_linear_568_8925)"/>
<path d="M308.925 91.3547C318.662 93.3281 327.674 98.4487 334.662 105.514C333.182 108.155 329.94 109.925 327.125 110.738C325.028 111.343 322.948 111.299 320.786 111.284L311.746 110.916C310.019 110.768 308.369 110.42 306.625 110.347C307.355 110.349 308.709 110.462 309.375 110.267C309.964 110.094 310.725 109.33 311.201 108.922C312.281 107.994 313.385 107.048 314.633 106.351C317.488 104.756 321.706 104.651 324.156 102.66C323.843 101.015 317.671 99.0027 316.105 98.2207C314.689 97.5134 313.284 96.6814 312.086 95.6394C310.688 94.4247 309.852 92.9307 308.925 91.3547Z" fill="#F30916"/>
<path d="M384.306 143.863L384.22 143.836C382.178 142.624 380.212 140.617 378.608 138.889C374.992 134.997 371.549 130.349 369.149 125.582C373.04 130.145 377.683 134.202 382.656 137.536C384.386 138.696 386.418 139.569 388.043 140.829C394.93 143.97 401.603 146.727 409.198 147.599C412.964 148.031 416.633 147.905 420.402 147.833C419.088 149.116 417.468 151.102 415.819 151.896C414.146 152.702 411.908 152.683 410.086 152.66C401.003 152.542 391.24 150.069 384.306 143.863Z" fill="url(#paint3_linear_568_8925)"/>
<path d="M366.54 210.375C368.19 210.072 369.978 210.196 371.655 210.256C374.763 210.367 377.948 210.58 381 211.189C389.206 212.825 398.261 218 402.906 225.079C408.194 233.136 410.557 244.064 408.554 253.526C406.376 263.814 397.862 271.62 389.465 277.13L386.24 278.84C387.136 277.834 388.415 277.032 389.432 276.136C392.018 273.859 394.42 271.42 396.539 268.696C402.81 260.634 406.718 248.409 405.374 238.18C404.793 233.756 403.368 229.688 400.768 226.028C395.485 218.591 387.598 214.193 378.848 212.045C376.216 211.399 373.612 211.134 370.959 210.666C369.506 210.408 368.014 210.419 366.54 210.375Z" fill="white"/>
<path d="M369.74 0H383.007C388.193 7.94534 391.87 16.6099 395.166 25.4626C396.905 30.1308 398.717 34.9185 399.561 39.8418C395.807 37.5414 393.509 34.0163 391.087 30.4476L384.598 20.5712C380.192 13.7541 375.64 6.18744 370.034 0.305712L369.74 0Z" fill="white"/>
<path d="M422.863 226.135C433.27 221.37 441.394 213.519 448.122 204.399C450.122 201.689 451.783 198.685 453.968 196.132C453.337 199.813 452.653 203.605 451.405 207.135C448.146 216.353 441.494 224.571 433.559 230.197C429.118 233.345 424.457 235.503 419.36 237.337L414.558 229.755C414.918 229.529 414.755 229.6 415.166 229.471C417.684 228.683 420.746 227.722 422.863 226.135Z" fill="white"/>
<path d="M390.587 278.674C399.95 273.238 407.59 266.865 410.481 255.974C412.769 247.357 411.065 237.792 407.585 229.711C406.71 227.678 405.54 225.829 404.6 223.84C405.395 223.724 406.131 224.133 406.764 224.582C407.992 225.454 409.07 226.702 410.112 227.788C414.22 232.068 417.837 237.56 418.621 243.562C419.877 253.173 416.367 262.918 410.489 270.428C406.295 275.785 401.017 279.952 395.068 283.216C394.234 282.955 393.833 282.191 393.125 281.878C392.907 281.781 392.032 281.815 391.767 281.827C391.163 281.854 390.964 281.855 390.375 281.628C389.65 281.348 388.873 281.346 388.125 281.128C388.361 279.933 389.162 280.188 390.001 279.547C390.189 279.403 390.442 278.89 390.587 278.674Z" fill="white"/>
<path d="M357.228 68.8054L364.019 78.4148C371.484 88.2221 380.592 97.5561 390.889 104.405C401.818 111.673 413.95 116.167 427.147 113.477C428.07 115.913 429.726 118.143 430.875 120.491L430.126 120.945L429.704 121.077C418.321 124.639 405.262 122.072 394.914 116.591C376.248 106.703 363.314 88.8221 357.228 68.8054Z" fill="white"/>
<path d="M361.871 93.1255C362.517 93.6115 362.871 94.7982 363.202 95.5175C363.896 97.0262 364.659 98.5142 365.518 99.9362C367.571 103.331 370.09 106.313 372.738 109.249C378.877 116.057 385.598 121.544 394.048 125.268C406.012 130.541 419.75 132.458 432.154 127.626C433.155 130.382 434.784 132.82 435.927 135.5L435.375 135.963C430.721 138.001 425.716 139.063 420.657 139.397C408.982 140.169 398.261 136.879 388.141 131.246C383.916 128.894 379.882 126.286 376.254 123.071C369.394 116.991 365.759 110.437 363.471 101.616C362.761 98.8808 362.03 95.9562 361.871 93.1255Z" fill="white"/>
<path d="M348.189 0H360.945L378.634 19.6036C383.859 25.8479 388.205 32.8168 392.345 39.8116C395.504 45.1504 398.686 50.6167 400.899 56.4292C402.426 60.4416 403.477 64.7364 403.963 68.998C401.721 67.602 399.804 65.5448 397.924 63.7042C385.265 51.3121 375.907 36.2856 365.446 22.1347L348.189 0Z" fill="white"/>
<path d="M-7 139.208V0H135.435H172.581H182.979H302.017H308.147H311.807C311.42 4.70585 310.665 9.86841 309.089 14.3429C307.767 17.838 306.631 21.4255 305.111 24.8409C302.517 30.673 299.431 36.5803 295.867 41.8902C286.239 56.2366 273.278 67.938 259.282 77.9047L246 86.5194C242.772 88.4601 239.577 90.458 236.135 92.0067C235.715 92.196 235.416 92.2461 235.135 92.6381C234.363 104.467 228.022 115.163 219.25 122.987L213.78 127.429C206.44 131.315 198.331 135.167 190.337 137.474C187.709 139.406 184.286 140.541 181.349 141.991C174.991 145.128 168.804 148.369 162.18 150.943C156.12 153.296 149.797 154.985 143.853 157.625L143.714 159.815C143.923 169.58 144.247 179.315 146.125 188.931C146.829 192.538 147.937 196.097 148.941 199.631C151.125 199.345 160.4 198.818 161.468 197.75C161.664 196.628 161.756 195.86 161.108 194.873C160.213 193.512 158.614 192.214 157.402 191.114L157.773 191.011C160.138 193.116 163.535 195.402 165.241 198L165.503 198.393C168.152 202.473 169.275 207.519 170.875 212.061L177.029 228.981C176.004 229.563 175.233 229.839 174.6 230.875C174.271 233.807 176.425 239.286 177.775 241.937L199.732 302.548L174.649 287.794C173.686 288.209 172.627 288.616 171.82 289.298C170.746 290.205 169.064 292.558 167.797 292.979C167.431 293.1 166.471 292.967 166.063 292.96L160.096 292.683L136.326 292.505L48.1483 292.558L-7 292.597V276.967V248.68V221.778V194.025V167.971V139.208Z" fill="#080400"/>
<path d="M120.491 240.543C132.174 241.319 144.287 247.671 152.027 256.41C153.696 258.295 155.124 260.513 156.195 262.79L145.553 253.301C140.581 248.745 133.547 245.15 127.249 242.877C125.171 242.127 122.311 241.697 120.491 240.543Z" fill="white"/>
<path d="M74.3787 248.925C74.128 248.159 74.0567 247.505 74.0353 246.703C73.818 238.473 76.5793 230.494 82.268 224.515L80.1773 229.554C78.178 234.969 77.0613 243.201 79.56 248.561L79.6993 248.855L74.3787 248.925Z" fill="url(#paint4_linear_568_8925)"/>
<path d="M45.2369 125.591C46.7754 125.543 48.3232 125.74 49.855 125.874L44.1528 133.042C43.7971 133.416 43.7644 133.452 43.5898 133.974C43.888 134.254 44.1522 134.475 44.5031 134.692L44.8142 134.875C44.7533 135.605 44.4608 136.205 44.1106 136.839C43.4382 138.057 42.7511 138.464 41.4437 138.86C40.4178 138.958 39.566 138.847 38.5536 138.67C36.9708 137.489 36.1306 135.351 35.8807 133.429C35.6619 131.744 36.1955 130.261 37.2527 128.956C39.3048 126.423 42.2064 125.96 45.2369 125.591Z" fill="#F30916"/>
<path d="M41.2192 158.255C43.2024 162.825 44.3062 167.734 46.2373 172.347C52.0613 186.26 62.3506 198.94 74.3173 208.037C76.838 209.952 79.5687 211.78 82.3453 213.305C83.8927 214.155 85.9113 214.801 87.2753 215.881L87.5727 216.125C86.3993 216.048 85.0507 215.447 83.9413 215.043C76.1473 212.203 68.2827 206.605 62.1253 201.137C59.0486 198.405 55.9864 195.49 53.4591 192.237C45.9436 182.562 41.9384 170.411 41.2192 158.255Z" fill="white"/>
<path d="M134.037 205.741C132.308 203.408 128.177 196.193 128.725 193.373C128.808 192.945 129.248 192.679 129.625 192.509C132.301 191.306 136.925 192.511 139.481 193.707C145.979 196.747 149.824 201.974 152.129 208.617L152.911 211.136C148.419 209.11 143.742 207.678 138.969 206.463C137.557 206.103 135.43 205.292 134.037 205.741Z" fill="#F30916"/>
<path d="M74.3787 248.925L79.6993 248.855L79.974 248.883L84.906 249.004C87.616 257.129 94.674 265.043 102.315 268.872C105.597 270.517 109.183 271.497 112.667 272.623C103.469 273.897 92.7833 270.93 85.392 265.325C79.6327 260.958 76.294 255.85 74.3787 248.925Z" fill="white"/>
<path d="M112.882 243.427L113.125 243.773C114.207 245.382 114.701 247.321 115.871 248.981C121.371 256.788 129.989 260.909 138.041 265.475L137.89 265.607C136.745 266.522 135.252 267.255 133.963 267.948C130.511 269.801 125.928 272.027 121.875 271.489C119.963 271.235 118.483 270.09 117.302 268.629C111.887 261.925 111.941 251.49 112.882 243.427Z" fill="white"/>
<path d="M68.3694 161.335L68.6248 169.245C69.3741 176.161 71.7568 182.757 75.4881 188.63C82.1755 199.157 93.3248 206.236 105.275 209.349C107.754 209.995 110.334 209.996 112.833 210.563L108.097 211.409C100.347 212.043 92.3935 210.547 85.2275 207.586C76.7455 204.083 70.7621 198.048 67.2641 189.607C65.0328 184.221 63.8321 178.162 64.8101 172.346C65.4394 168.601 66.9301 164.827 68.3694 161.335Z" fill="white"/>
<path d="M143.714 159.815C143.378 157.453 143.512 154.957 143.488 152.569L143.378 140.225C154.653 140.213 166.19 140.549 177.421 139.54C181.812 139.146 186.005 137.975 190.337 137.474C187.709 139.406 184.286 140.541 181.349 141.991C174.992 145.128 168.804 148.369 162.18 150.943C156.12 153.296 149.797 154.985 143.853 157.625L143.714 159.815Z" fill="#DAB1B9"/>
<path d="M112.882 243.427C113.021 243.032 113.137 242.715 113.451 242.421C115.162 240.811 118.255 240.454 120.491 240.543C122.311 241.697 125.171 242.127 127.249 242.877C133.547 245.15 140.581 248.745 145.553 253.301C145.777 255.895 145.893 258.995 144.093 261.08C142.401 263.039 139.971 263.866 138.041 265.475C129.989 260.909 121.371 256.787 115.871 248.981C114.701 247.321 114.207 245.382 113.125 243.773L112.882 243.427Z" fill="#F30916"/>
<path d="M134.037 205.741C135.43 205.292 137.557 206.103 138.969 206.463C143.742 207.678 148.419 209.11 152.911 211.136C153.341 213.235 155.09 216.054 156.009 218.019L168.753 243.774L179.972 267.499C181.329 270.538 183.186 273.933 183.911 277.174C184.09 277.975 184.271 278.705 183.969 279.495C183.219 279.946 182.772 280.083 181.875 279.983C179.933 279.766 178.317 278.087 177.312 276.542C174.958 272.925 173.475 268.649 171.544 264.79L162.701 248.763C159.059 242.357 154.847 236.237 150.759 230.11L134.037 205.741Z" fill="white"/>
<path d="M172.582 0H182.98C179.629 7.6726 176.402 15.3527 172.274 22.6495C168.465 29.3805 163.947 35.673 159.278 41.8242C154.314 48.3638 149.264 54.7154 143.622 60.6968C126.73 78.606 107.185 93.6027 89.4195 110.567L74.0722 126.598L67.8748 133.953C66.4648 135.637 65.0988 137.391 63.4102 138.807C65.5268 133.36 69.6495 128.46 73.4028 124.069C83.6122 112.125 95.4208 101.884 106.722 91.0294L124.583 72.708C139.252 57.1034 153.396 40.1661 163.493 21.1765C167.131 14.3341 170.023 7.30387 172.582 0Z" fill="#F30916"/>
<path d="M141.539 23.1249L141.984 23.0762C142.965 23.4753 143.64 24.1667 144.41 24.8697C136.237 42.6343 124.915 59.7201 111.633 74.0679C96.8847 90.0006 79.7113 103.597 65.912 120.416C62.34 124.769 58.8009 129.257 55.8713 134.076C52.7809 139.159 50.7043 144.509 48.1875 149.849C47.8844 150.478 47.565 151.04 47.184 151.625L46.875 151.629L46.8325 151.159C46.6774 149.102 46.9753 146.885 47.272 144.848C48.2234 138.319 50.4258 132.283 53.8655 126.645C59.8153 116.894 68.208 108.494 76.2027 100.411L96.7707 80.0746L102.707 73.7679C106.712 69.6393 110.701 65.6186 114.414 61.2126C120.371 54.1428 125.901 46.524 130.971 38.7932C134.355 33.6318 137.517 27.777 141.539 23.1249Z" fill="#F30916"/>
<path d="M177.85 44.3823C179.055 44.7166 180.176 45.2207 181.32 45.7181C178.082 51.3621 174.112 56.6111 170.14 61.7559L162.718 71.1307C148.936 87.1561 132.883 101.125 116.375 114.247L103.627 123.743L87.8435 136.743C83.8888 140.109 80.1628 143.746 76.6161 147.537C75.4901 148.742 73.6215 151.549 72.2501 152.214L71.1241 151.178L66.6748 146.467C74.3181 137.498 83.6615 129.903 93.0322 122.826L124.188 99.9948L135.516 90.5987C151.438 76.8901 165.599 61.4527 177.85 44.3823Z" fill="#F30916"/>
<path d="M302.017 0H308.147C307.108 6.31974 305.231 12.6581 303.007 18.6559C300.459 25.5236 297.282 32.3191 293.317 38.4952C283.922 53.1273 270.869 64.5496 256.845 74.602L239.96 85.6347L203.693 106.069C198.272 108.787 192.597 111.835 186.81 113.668C182.334 115.943 176.886 117.629 172.061 118.937L170.775 116.037L185.587 109.173L252.033 71.4807C259.478 66.4544 266.558 60.3848 272.921 54.0417C275.654 51.317 278.513 48.6042 281.01 45.6619C289.171 36.0471 295.486 24.4309 299.157 12.3691C300.393 8.30714 301.209 4.1624 302.017 0Z" fill="white"/>
<path d="M-7 139.208L36.8787 139.221L40.1559 139.932C36.2232 145.948 34.9838 153.541 36.44 160.579C37.0162 163.364 37.9078 165.579 39.423 167.991L-7 167.971V139.208Z" fill="white"/>
<path d="M-7 194.025L51.0146 194.051C60.9647 207.181 75.4507 216.151 91.8407 218.332L92.5774 218.418C88.9761 219.951 85.2474 220.915 81.36 221.365C77.4127 221.823 73.362 221.835 69.3894 221.908L49.4726 221.983L-7 221.778V194.025Z" fill="white"/>
<path d="M-7 248.68L71.868 248.826C73.6467 256.758 78.2247 263.702 85.1481 268.062C95.2654 274.433 110.587 276.765 122.224 274.037C128.609 272.54 133.205 270.042 138.321 265.994C141.945 268.22 145.826 274.248 146.851 278.273C147.022 278.944 147.053 279.387 146.822 280.057C146.217 280.643 145.819 280.762 145 280.922C143.969 280.726 143.255 280.556 142.617 279.671C141.938 278.731 141.851 277.582 141.705 276.467L-7 276.968V248.68Z" fill="white"/>
<path d="M-7 139.208V0H135.435C132.495 2.4669 129.913 5.2829 127.333 8.1176C120.566 15.555 115.219 23.6649 110.553 32.5382C105.425 42.2948 101.482 52.2987 99.3667 63.1485C98.8234 65.9367 98.1921 68.756 97.9514 71.5894L97.7454 75.2174C97.7407 75.3767 97.7867 76.178 97.7221 76.3187C97.4694 76.8687 90.8687 82.4547 89.9407 83.3187C79.5387 93.0047 68.97 102.706 59.5626 113.375C56.6119 116.721 53.5139 120.151 51.0461 123.869C46.6467 122.771 41.3632 122.189 37.2966 124.717C35.5398 125.809 34.1434 127.642 33.7799 129.695C33.1217 133.415 34.8548 136.293 36.8787 139.221L-7 139.208Z" fill="#F30916"/>
</g>
<defs>
<linearGradient id="paint0_linear_568_8925" x1="324.715" y1="100.613" x2="337.438" y2="90.31" gradientUnits="userSpaceOnUse">
<stop stop-color="#B99698"/>
<stop offset="1" stop-color="#D0C3C4"/>
</linearGradient>
<linearGradient id="paint1_linear_568_8925" x1="423.227" y1="228.319" x2="422.526" y2="215.357" gradientUnits="userSpaceOnUse">
<stop stop-color="#B2818B"/>
<stop offset="1" stop-color="#DBACB2"/>
</linearGradient>
<linearGradient id="paint2_linear_568_8925" x1="349.044" y1="278.257" x2="392.381" y2="291.544" gradientUnits="userSpaceOnUse">
<stop stop-color="#756B72"/>
<stop offset="1" stop-color="#F3D3D5"/>
</linearGradient>
<linearGradient id="paint3_linear_568_8925" x1="392.922" y1="150.663" x2="395.731" y2="129.479" gradientUnits="userSpaceOnUse">
<stop stop-color="#B89C9D"/>
<stop offset="1" stop-color="#F6FEFD"/>
</linearGradient>
<linearGradient id="paint4_linear_568_8925" x1="85.3687" y1="233.412" x2="71.0007" y2="243.013" gradientUnits="userSpaceOnUse">
<stop stop-color="#1D1C20"/>
<stop offset="1" stop-color="#43303C"/>
</linearGradient>
<clipPath id="clip0_568_8925">
<rect width="512" height="512" fill="white" transform="translate(-7)"/>
</clipPath>
</defs>
</svg>
