<svg width="344" height="120" viewBox="0 0 344 120" fill="none" xmlns="http://www.w3.org/2000/svg">
<g id="Frame 6">
<g id="Frame 5">
<rect x="1.11741" y="23.1174" width="341.765" height="84.7652" rx="42.3826" stroke="#9E7531" stroke-width="1.76517"/>
</g>
<path id="Timeless" d="M59.672 55.128L59.576 55.416L60.584 45.912H90.056L91.064 55.416L90.968 55.176C89.528 50.184 85.112 46.872 79.928 46.872H79.832V78.552C79.832 79.704 80.6 80.712 81.752 80.952L81.848 81H68.792L68.888 80.952C70.04 80.712 70.808 79.704 70.808 78.552V46.872H70.712C65.528 46.872 61.112 50.184 59.672 55.128ZM94.5519 50.568C94.5519 47.688 96.8559 45.384 99.6879 45.384C102.52 45.384 104.872 47.688 104.872 50.568C104.872 53.352 102.52 55.656 99.6879 55.656C96.8559 55.656 94.5519 53.352 94.5519 50.568ZM106.12 80.952L106.216 81H93.1599L93.2559 80.952C94.4079 80.712 95.1759 79.704 95.1759 78.552V60.36C95.1759 59.16 94.4079 58.2 93.2559 57.96L93.1599 57.912C97.7679 57.672 100.072 57.24 103.72 55.896H104.2V78.552C104.2 79.704 104.968 80.712 106.12 80.952ZM128.585 78.552V65.16C128.585 61.32 127.193 58.824 124.793 58.824C122.009 58.824 120.137 62.184 120.137 67.08V78.552C120.137 79.704 120.905 80.712 122.057 80.952L122.153 81H109.097L109.193 80.952C110.345 80.712 111.113 79.704 111.113 78.552V60.36C111.113 59.16 110.345 58.2 109.193 57.96L109.097 57.912C113.705 57.672 116.009 57.24 119.657 55.896H120.137V61.464C121.721 57.72 125.081 55.416 129.545 55.416C134.297 55.416 136.937 57.912 137.465 61.848C139.001 57.816 142.409 55.416 147.017 55.416C152.345 55.416 155.033 58.632 155.033 63.384V78.552C155.033 79.704 155.801 80.712 156.953 80.952L157.049 81H143.993L144.137 80.952C145.289 80.712 146.009 79.704 146.009 78.552V65.16C146.009 61.32 144.665 58.824 142.265 58.824C139.433 58.824 137.609 62.184 137.609 67.08V78.552C137.609 79.704 138.329 80.712 139.481 80.952L139.577 81H126.569L126.665 80.952C127.817 80.712 128.585 79.704 128.585 78.552ZM185.159 63.24C185.159 67.32 181.991 70.248 176.279 70.248C174.407 70.248 172.247 69.96 169.847 69.24C171.095 72.6 173.735 74.472 177.335 74.472C180.935 74.472 184.103 72.552 185.927 69.72C185.351 76.824 180.551 81.528 173.399 81.528C165.815 81.528 160.055 76.296 160.055 68.472C160.055 60.648 165.767 55.416 174.263 55.416C180.791 55.416 185.159 58.536 185.159 63.24ZM169.415 67.944C179.255 64.248 177.575 56.424 173.447 56.424C170.807 56.424 169.079 59.64 169.079 64.392C169.079 65.688 169.175 66.84 169.415 67.944ZM201.696 80.952L201.792 81H188.736L188.832 80.952C189.984 80.712 190.752 79.704 190.752 78.552V50.328C190.752 49.128 189.984 48.168 188.832 47.928L188.736 47.88C193.344 47.64 195.648 47.208 199.296 45.864H199.776V78.552C199.776 79.704 200.544 80.712 201.696 80.952ZM229.972 63.24C229.972 67.32 226.804 70.248 221.092 70.248C219.22 70.248 217.06 69.96 214.66 69.24C215.908 72.6 218.548 74.472 222.148 74.472C225.748 74.472 228.916 72.552 230.74 69.72C230.164 76.824 225.364 81.528 218.212 81.528C210.628 81.528 204.868 76.296 204.868 68.472C204.868 60.648 210.58 55.416 219.076 55.416C225.604 55.416 229.972 58.536 229.972 63.24ZM214.228 67.944C224.068 64.248 222.388 56.424 218.26 56.424C215.62 56.424 213.892 59.64 213.892 64.392C213.892 65.688 213.988 66.84 214.228 67.944ZM249.526 77.976C249.526 73.08 234.982 69.96 234.982 62.52C234.982 58.296 239.734 55.416 246.549 55.416C252.406 55.416 256.486 57.528 256.486 61.032C256.486 63.336 254.758 64.536 253.03 64.536C251.638 64.536 250.246 63.72 249.91 61.992C250.918 58.68 249.91 56.424 246.598 56.424C244.198 56.424 242.374 57.624 242.374 59.112C242.374 63.48 257.014 66.216 257.014 74.184C257.014 78.648 252.358 81.528 245.35 81.528C238.773 81.528 234.214 78.984 234.214 75.048C234.214 72.408 236.23 71.016 238.15 71.016C239.782 71.016 241.366 71.976 241.75 73.992C240.646 77.64 242.662 80.52 246.214 80.52C248.518 80.52 249.526 79.32 249.526 77.976ZM275.963 77.976C275.963 73.08 261.419 69.96 261.419 62.52C261.419 58.296 266.171 55.416 272.987 55.416C278.843 55.416 282.923 57.528 282.923 61.032C282.923 63.336 281.195 64.536 279.467 64.536C278.075 64.536 276.683 63.72 276.347 61.992C277.355 58.68 276.347 56.424 273.035 56.424C270.635 56.424 268.811 57.624 268.811 59.112C268.811 63.48 283.451 66.216 283.451 74.184C283.451 78.648 278.795 81.528 271.787 81.528C265.211 81.528 260.651 78.984 260.651 75.048C260.651 72.408 262.667 71.016 264.587 71.016C266.219 71.016 267.803 71.976 268.187 73.992C267.083 77.64 269.099 80.52 272.651 80.52C274.955 80.52 275.963 79.32 275.963 77.976Z" fill="#9E7531"/>
<g id="Frame 1">
<rect width="185" height="24" transform="translate(80 96)" fill="#FFF4E2"/>
<path id="Salonium" d="M132.625 114.258C131.365 114.258 130.281 114.122 129.375 113.852C128.474 113.581 127.76 113.185 127.234 112.664C126.714 112.143 126.401 111.513 126.297 110.773L126.281 110.664H129.195L129.211 110.734C129.284 111.031 129.461 111.281 129.742 111.484C130.029 111.688 130.417 111.844 130.906 111.953C131.401 112.062 132 112.117 132.703 112.117C133.281 112.117 133.779 112.062 134.195 111.953C134.612 111.839 134.932 111.677 135.156 111.469C135.38 111.26 135.492 111.016 135.492 110.734V110.727C135.492 110.367 135.341 110.099 135.039 109.922C134.742 109.745 134.227 109.617 133.492 109.539L130.703 109.312C129.286 109.172 128.24 108.836 127.562 108.305C126.885 107.768 126.547 107.026 126.547 106.078V106.062C126.547 105.318 126.776 104.677 127.234 104.141C127.693 103.604 128.344 103.193 129.188 102.906C130.036 102.615 131.042 102.469 132.203 102.469C133.391 102.469 134.411 102.607 135.266 102.883C136.12 103.154 136.794 103.547 137.289 104.062C137.784 104.578 138.086 105.193 138.195 105.906L138.219 106.016H135.328L135.305 105.945C135.221 105.654 135.055 105.409 134.805 105.211C134.555 105.013 134.214 104.865 133.781 104.766C133.354 104.661 132.836 104.609 132.227 104.609C131.648 104.609 131.159 104.661 130.758 104.766C130.357 104.865 130.052 105.01 129.844 105.203C129.641 105.391 129.539 105.617 129.539 105.883V105.891C129.539 106.234 129.693 106.497 130 106.68C130.307 106.862 130.818 106.992 131.531 107.07L134.352 107.289C135.294 107.388 136.068 107.568 136.672 107.828C137.281 108.089 137.734 108.44 138.031 108.883C138.328 109.32 138.477 109.857 138.477 110.492V110.5C138.477 111.286 138.245 111.961 137.781 112.523C137.323 113.081 136.656 113.51 135.781 113.812C134.911 114.109 133.859 114.258 132.625 114.258ZM143.922 114.141C143.167 114.141 142.508 114.039 141.945 113.836C141.388 113.628 140.953 113.326 140.641 112.93C140.333 112.529 140.18 112.036 140.18 111.453V111.445C140.18 110.94 140.312 110.503 140.578 110.133C140.844 109.758 141.26 109.464 141.828 109.25C142.401 109.036 143.143 108.919 144.055 108.898L148.906 108.805V110.25L144.531 110.352C143.995 110.367 143.604 110.456 143.359 110.617C143.12 110.773 143 110.992 143 111.273V111.289C143 111.643 143.167 111.909 143.5 112.086C143.839 112.258 144.279 112.344 144.82 112.344C145.357 112.344 145.823 112.271 146.219 112.125C146.62 111.979 146.927 111.773 147.141 111.508C147.359 111.237 147.469 110.919 147.469 110.555V108.531C147.469 108.073 147.286 107.719 146.922 107.469C146.562 107.219 146.047 107.094 145.375 107.094C144.792 107.094 144.328 107.182 143.984 107.359C143.646 107.531 143.424 107.768 143.32 108.07L143.297 108.125H140.578L140.594 108.031C140.698 107.469 140.951 106.974 141.352 106.547C141.758 106.115 142.302 105.779 142.984 105.539C143.672 105.299 144.492 105.18 145.445 105.18C146.482 105.18 147.365 105.312 148.094 105.578C148.828 105.839 149.388 106.221 149.773 106.727C150.159 107.232 150.352 107.844 150.352 108.562V114H147.469V112.633H147.391C147.198 112.945 146.932 113.216 146.594 113.445C146.255 113.669 145.859 113.841 145.406 113.961C144.958 114.081 144.464 114.141 143.922 114.141ZM152.898 114V102.297H155.789V114H152.898ZM163.469 114.211C162.339 114.211 161.357 114.029 160.523 113.664C159.69 113.294 159.044 112.773 158.586 112.102C158.133 111.424 157.906 110.625 157.906 109.703V109.68C157.906 108.758 158.135 107.961 158.594 107.289C159.052 106.617 159.698 106.099 160.531 105.734C161.365 105.365 162.344 105.18 163.469 105.18C164.599 105.18 165.581 105.362 166.414 105.727C167.247 106.091 167.891 106.612 168.344 107.289C168.802 107.961 169.031 108.758 169.031 109.68V109.703C169.031 110.625 168.802 111.424 168.344 112.102C167.891 112.773 167.247 113.294 166.414 113.664C165.581 114.029 164.599 114.211 163.469 114.211ZM163.469 112.18C163.995 112.18 164.453 112.083 164.844 111.891C165.234 111.693 165.536 111.409 165.75 111.039C165.969 110.669 166.078 110.224 166.078 109.703V109.688C166.078 109.161 165.969 108.716 165.75 108.352C165.536 107.982 165.234 107.698 164.844 107.5C164.453 107.302 163.995 107.203 163.469 107.203C162.948 107.203 162.49 107.302 162.094 107.5C161.703 107.698 161.398 107.982 161.18 108.352C160.966 108.716 160.859 109.161 160.859 109.688V109.703C160.859 110.224 160.966 110.669 161.18 111.039C161.398 111.409 161.703 111.693 162.094 111.891C162.49 112.083 162.948 112.18 163.469 112.18ZM171.062 114V105.391H173.953V107.047H174.039C174.331 106.469 174.776 106.013 175.375 105.68C175.974 105.341 176.701 105.172 177.555 105.172C178.784 105.172 179.734 105.508 180.406 106.18C181.083 106.846 181.422 107.792 181.422 109.016V114H178.523V109.625C178.523 108.865 178.341 108.289 177.977 107.898C177.617 107.508 177.083 107.312 176.375 107.312C175.875 107.312 175.445 107.411 175.086 107.609C174.727 107.802 174.448 108.078 174.25 108.438C174.052 108.797 173.953 109.224 173.953 109.719V114H171.062ZM183.836 114V105.391H186.734V114H183.836ZM185.281 104.312C184.823 104.312 184.448 104.182 184.156 103.922C183.865 103.656 183.719 103.326 183.719 102.93C183.719 102.539 183.865 102.214 184.156 101.953C184.448 101.693 184.823 101.562 185.281 101.562C185.745 101.562 186.122 101.693 186.414 101.953C186.706 102.214 186.852 102.539 186.852 102.93C186.852 103.326 186.706 103.656 186.414 103.922C186.122 104.182 185.745 104.312 185.281 104.312ZM192.977 114.211C192.169 114.211 191.479 114.062 190.906 113.766C190.339 113.469 189.901 113.036 189.594 112.469C189.292 111.901 189.141 111.208 189.141 110.391V105.383H192.039V109.781C192.039 110.521 192.216 111.089 192.57 111.484C192.924 111.88 193.451 112.078 194.148 112.078C194.513 112.078 194.841 112.023 195.133 111.914C195.43 111.799 195.685 111.641 195.898 111.438C196.112 111.229 196.276 110.977 196.391 110.68C196.505 110.383 196.562 110.044 196.562 109.664V105.383H199.453V114H196.562V112.344H196.477C196.284 112.724 196.021 113.055 195.688 113.336C195.354 113.612 194.958 113.828 194.5 113.984C194.042 114.135 193.534 114.211 192.977 114.211ZM201.953 114V105.383H204.844V106.969H204.93C205.201 106.391 205.617 105.948 206.18 105.641C206.742 105.328 207.396 105.172 208.141 105.172C208.667 105.172 209.138 105.25 209.555 105.406C209.977 105.557 210.336 105.776 210.633 106.062C210.93 106.349 211.159 106.695 211.32 107.102H211.406C211.604 106.685 211.87 106.333 212.203 106.047C212.542 105.76 212.935 105.544 213.383 105.398C213.831 105.247 214.318 105.172 214.844 105.172C215.625 105.172 216.286 105.32 216.828 105.617C217.37 105.909 217.784 106.328 218.07 106.875C218.357 107.417 218.5 108.068 218.5 108.828V114H215.602V109.453C215.602 108.99 215.531 108.599 215.391 108.281C215.255 107.964 215.047 107.724 214.766 107.562C214.49 107.396 214.138 107.312 213.711 107.312C213.273 107.312 212.898 107.404 212.586 107.586C212.279 107.768 212.042 108.029 211.875 108.367C211.708 108.701 211.625 109.094 211.625 109.547V114H208.812V109.422C208.812 108.974 208.742 108.594 208.602 108.281C208.466 107.964 208.258 107.724 207.977 107.562C207.695 107.396 207.346 107.312 206.93 107.312C206.497 107.312 206.125 107.406 205.812 107.594C205.5 107.776 205.26 108.039 205.094 108.383C204.927 108.721 204.844 109.122 204.844 109.586V114H201.953Z" fill="#9E7531"/>
</g>
</g>
</svg>
