<svg width="389" height="134" viewBox="0 0 389 134" fill="none" xmlns="http://www.w3.org/2000/svg">
<rect width="67" height="42.7161" transform="translate(161 1.84033)" fill="#F7F4EA"/>
<path d="M195.541 27.9499C196.192 30.0976 197.421 33.1718 199.837 36.3303C203.409 41.0048 207.719 43.4333 210.105 44.5563C210.264 39.3624 208.558 35.853 207.632 34.2387C205.651 30.8135 202.888 28.6798 200.126 26.5742C198.13 25.0441 197.349 24.7213 195.107 23.2333C189.366 19.4572 183.754 15.7653 181.122 9.75727C180.413 8.12892 179.56 5.54602 179.574 1.95242C181.599 2.73852 184.737 4.25457 187.731 7.11822C192.027 11.2031 193.661 15.7934 194.297 18.0254" stroke="#9C783E" stroke-width="2" stroke-miterlimit="10"/>
<path d="M212 10.2348C211.132 12.4386 209.585 15.569 206.779 18.6713C205.058 20.5804 203.293 21.9982 201.804 23.0089" stroke="#9C783E" stroke-width="2" stroke-miterlimit="10"/>
<path d="M177 36.0497C177.68 34.1968 179.025 31.2629 181.686 28.3712C183.985 25.8585 186.401 24.3144 188.078 23.43" stroke="#9C783E" stroke-width="2" stroke-miterlimit="10"/>
<path d="M205.029 44.5564H179.444C179.401 42.7877 179.545 39.6293 181.006 36.2041C185.851 24.932 199.171 24.6934 206.605 12.6211C207.921 10.4874 209.671 6.97806 210.467 1.84033H184.868" stroke="#9C783E" stroke-width="2" stroke-miterlimit="10"/>
<path d="M195.093 23.2194C193.762 22.4333 191.925 21.2682 189.886 19.668C188.281 18.4186 186.184 16.7482 183.971 14.1091C183.06 13.0142 182.366 12.0456 181.888 11.3297C184.781 11.6245 186.647 12.565 187.833 13.3792C191.275 15.7375 191.26 18.6853 194.428 19.7943C197.002 20.7067 199.533 19.6399 199.663 20.1733C199.735 20.4681 198.68 21.0998 196.554 22.3632C195.946 22.7281 195.44 23.0229 195.078 23.2194H195.093Z" fill="#9C783E"/>
<path d="M195.021 23.43C196.351 24.2161 198.188 25.3812 200.227 26.9815C201.833 28.2308 203.93 29.9013 206.142 32.5403C207.054 33.6353 207.748 34.6039 208.225 35.3198C205.332 35.025 203.467 34.0845 202.281 33.2703C198.839 30.912 198.853 27.9641 195.686 26.8552C193.111 25.9427 190.58 27.0096 190.45 26.4762C190.378 26.1814 191.434 25.5497 193.56 24.2863C194.167 23.9213 194.673 23.6265 195.035 23.43H195.021Z" fill="#9C783E"/>
<rect x="1" y="23" width="387" height="101" stroke="#9C783E" stroke-width="2"/>
<path d="M108.176 57.5156L108.504 68.2891H106.863C106.408 66.1562 105.824 64.4974 105.113 63.3125C104.402 62.1094 103.4 61.2435 102.105 60.7148C100.811 60.168 99.0885 59.8125 96.9375 59.6484L95.625 59.5391V91.2031C95.625 92.1146 95.7253 92.8346 95.9258 93.3633C96.1445 93.8919 96.5547 94.293 97.1562 94.5664C97.776 94.8398 98.6875 95.0677 99.8906 95.25V97H81.7617V95.25C82.9831 95.0677 83.8945 94.8398 84.4961 94.5664C85.1159 94.293 85.526 93.8919 85.7266 93.3633C85.9271 92.8346 86.0273 92.1146 86.0273 91.2031V59.5391L84.7422 59.6484C82.5911 59.8125 80.8685 60.1589 79.5742 60.6875C78.2982 61.2161 77.2956 62.082 76.5664 63.2852C75.8555 64.4701 75.2721 66.138 74.8164 68.2891H73.1484L73.5039 57.5156H108.176ZM122.367 69.1914V92.3242C122.367 93.2904 122.568 93.9648 122.969 94.3477C123.37 94.7305 124.281 95.0312 125.703 95.25V97H110.09V95.25C111.53 95.0312 112.451 94.7305 112.852 94.3477C113.253 93.9648 113.453 93.2904 113.453 92.3242V75.4258C113.453 74.5508 113.344 73.9583 113.125 73.6484C112.924 73.3203 112.441 73.0378 111.676 72.8008L110.09 72.3359V70.6953L122.367 69.1914ZM117.363 65.3906C116.087 65.3906 114.984 64.9714 114.055 64.1328C113.143 63.276 112.688 62.2188 112.688 60.9609C112.688 59.7031 113.143 58.6549 114.055 57.8164C114.984 56.9779 116.087 56.5586 117.363 56.5586C118.658 56.5586 119.76 56.9779 120.672 57.8164C121.583 58.6549 122.039 59.7031 122.039 60.9609C122.039 62.2188 121.583 63.276 120.672 64.1328C119.76 64.9714 118.658 65.3906 117.363 65.3906ZM140.496 69.1914V74.6602L140.578 74.6875V92.5156C140.578 93.4453 140.742 94.0833 141.07 94.4297C141.417 94.776 142.219 95.0495 143.477 95.25V97H128.301V95.25C129.741 95.0312 130.661 94.7305 131.062 94.3477C131.464 93.9648 131.664 93.2904 131.664 92.3242V75.4258C131.664 74.5508 131.555 73.9583 131.336 73.6484C131.135 73.3203 130.652 73.0378 129.887 72.8008L128.301 72.3359V70.6953L140.496 69.1914ZM149.93 69.0273C152.682 69.0273 154.861 69.7474 156.465 71.1875C158.087 72.6094 158.898 74.7331 158.898 77.5586V92.5156C158.898 93.4453 159.062 94.0833 159.391 94.4297C159.737 94.7578 160.539 95.0312 161.797 95.25V97H147.086V95.25C148.344 95.0312 149.137 94.7578 149.465 94.4297C149.811 94.0833 149.984 93.4453 149.984 92.5156V78.5977C149.984 76.7565 149.565 75.3802 148.727 74.4688C147.906 73.5391 146.758 73.0742 145.281 73.0742C144.115 73.0742 143.112 73.3294 142.273 73.8398C141.453 74.332 140.797 75.0612 140.305 76.0273V74.4688C141.052 72.8099 142.264 71.4883 143.941 70.5039C145.618 69.5195 147.615 69.0273 149.93 69.0273ZM167.977 69.0273C170.766 69.0273 172.999 69.7747 174.676 71.2695C176.371 72.7643 177.219 74.9701 177.219 77.8867V92.3242C177.219 93.2904 177.419 93.9648 177.82 94.3477C178.221 94.7305 179.133 95.0312 180.555 95.25V97H165.406V95.25C166.664 95.0312 167.457 94.7578 167.785 94.4297C168.113 94.0833 168.277 93.4453 168.277 92.5156V78.5977C168.277 76.7565 167.858 75.3802 167.02 74.4688C166.181 73.5391 165.005 73.0742 163.492 73.0742C162.289 73.0742 161.241 73.3294 160.348 73.8398C159.473 74.3503 158.798 75.0977 158.324 76.082V74.4961C159.072 72.7826 160.293 71.4427 161.988 70.4766C163.684 69.5104 165.68 69.0273 167.977 69.0273ZM183.727 83.4102C183.727 80.5846 184.328 78.0872 185.531 75.918C186.734 73.7487 188.411 72.0625 190.562 70.8594C192.714 69.638 195.202 69.0273 198.027 69.0273C200.616 69.0273 202.822 69.5195 204.645 70.5039C206.486 71.4701 207.889 72.8281 208.855 74.5781C209.84 76.3281 210.332 78.3789 210.332 80.7305C210.332 81.5508 210.286 82.2344 210.195 82.7812H189.934V80.7578L203.004 80.6484L202.402 81.2773C202.421 81.0039 202.43 80.7031 202.43 80.375C202.448 80.0469 202.457 79.6549 202.457 79.1992C202.457 77.5586 202.293 76.1549 201.965 74.9883C201.655 73.8216 201.163 72.9284 200.488 72.3086C199.832 71.6706 199.012 71.3516 198.027 71.3516C196.35 71.3516 195.038 72.1263 194.09 73.6758C193.142 75.2253 192.668 77.4766 192.668 80.4297C192.668 83.2005 193.115 85.5612 194.008 87.5117C194.901 89.444 196.141 90.9297 197.727 91.9688C199.331 92.9896 201.181 93.5 203.277 93.5C204.59 93.5 205.811 93.2812 206.941 92.8438C208.09 92.4062 209.029 91.8411 209.758 91.1484V92.8984C208.737 94.3568 207.224 95.5052 205.219 96.3438C203.232 97.1641 200.962 97.5742 198.41 97.5742C195.676 97.5742 193.197 97.0091 190.973 95.8789C188.749 94.7305 186.98 93.099 185.668 90.9844C184.374 88.8698 183.727 86.3451 183.727 83.4102ZM226 56.0117V92.3242C226 93.2904 226.201 93.9648 226.602 94.3477C227.003 94.7305 227.914 95.0312 229.336 95.25V97H213.723V95.25C215.163 95.0312 216.083 94.7305 216.484 94.3477C216.885 93.9648 217.086 93.2904 217.086 92.3242V62.2461C217.086 61.3711 216.977 60.7786 216.758 60.4688C216.557 60.1406 216.074 59.8581 215.309 59.6211L213.723 59.1562V57.5156L226 56.0117ZM232.617 83.4102C232.617 80.5846 233.219 78.0872 234.422 75.918C235.625 73.7487 237.302 72.0625 239.453 70.8594C241.604 69.638 244.092 69.0273 246.918 69.0273C249.507 69.0273 251.712 69.5195 253.535 70.5039C255.376 71.4701 256.78 72.8281 257.746 74.5781C258.73 76.3281 259.223 78.3789 259.223 80.7305C259.223 81.5508 259.177 82.2344 259.086 82.7812H238.824V80.7578L251.895 80.6484L251.293 81.2773C251.311 81.0039 251.32 80.7031 251.32 80.375C251.339 80.0469 251.348 79.6549 251.348 79.1992C251.348 77.5586 251.184 76.1549 250.855 74.9883C250.546 73.8216 250.053 72.9284 249.379 72.3086C248.723 71.6706 247.902 71.3516 246.918 71.3516C245.241 71.3516 243.928 72.1263 242.98 73.6758C242.033 75.2253 241.559 77.4766 241.559 80.4297C241.559 83.2005 242.005 85.5612 242.898 87.5117C243.792 89.444 245.031 90.9297 246.617 91.9688C248.221 92.9896 250.072 93.5 252.168 93.5C253.48 93.5 254.702 93.2812 255.832 92.8438C256.98 92.4062 257.919 91.8411 258.648 91.1484V92.8984C257.628 94.3568 256.115 95.5052 254.109 96.3438C252.122 97.1641 249.853 97.5742 247.301 97.5742C244.566 97.5742 242.087 97.0091 239.863 95.8789C237.639 94.7305 235.871 93.099 234.559 90.9844C233.264 88.8698 232.617 86.3451 232.617 83.4102ZM263.434 77.832C263.434 76.0091 263.935 74.4414 264.938 73.1289C265.958 71.7982 267.417 70.7865 269.312 70.0938C271.208 69.3828 273.478 69.0273 276.121 69.0273C278.163 69.0273 279.958 69.2005 281.508 69.5469C283.076 69.8932 284.27 70.2943 285.09 70.75L285.227 77.9141H283.559C283.048 75.8359 282.155 74.2227 280.879 73.0742C279.621 71.9258 278.081 71.3516 276.258 71.3516C274.69 71.3516 273.469 71.6797 272.594 72.3359C271.737 72.9922 271.309 73.849 271.309 74.9062C271.309 75.9453 271.71 76.7747 272.512 77.3945C273.314 77.9961 274.49 78.5339 276.039 79.0078L278.391 79.6914C281.089 80.5117 283.139 81.6328 284.543 83.0547C285.947 84.4583 286.648 86.3177 286.648 88.6328C286.648 90.4922 286.092 92.0872 284.98 93.418C283.887 94.7487 282.374 95.7695 280.441 96.4805C278.527 97.1732 276.331 97.5195 273.852 97.5195C272.466 97.5195 271.126 97.4193 269.832 97.2188C268.556 97.0365 267.371 96.7721 266.277 96.4258C265.202 96.0794 264.299 95.6966 263.57 95.2773L263.352 87.6211H264.992C265.357 89.1523 265.949 90.4831 266.77 91.6133C267.608 92.7435 268.611 93.6276 269.777 94.2656C270.962 94.8854 272.247 95.1953 273.633 95.1953C275.255 95.1953 276.513 94.849 277.406 94.1562C278.318 93.4635 278.773 92.5703 278.773 91.4766C278.773 90.4193 278.409 89.5716 277.68 88.9336C276.969 88.2773 275.811 87.7031 274.207 87.2109L271.828 86.5C269.276 85.7161 267.234 84.6497 265.703 83.3008C264.19 81.9518 263.434 80.1289 263.434 77.832ZM290.832 77.832C290.832 76.0091 291.333 74.4414 292.336 73.1289C293.357 71.7982 294.815 70.7865 296.711 70.0938C298.607 69.3828 300.876 69.0273 303.52 69.0273C305.561 69.0273 307.357 69.2005 308.906 69.5469C310.474 69.8932 311.668 70.2943 312.488 70.75L312.625 77.9141H310.957C310.447 75.8359 309.553 74.2227 308.277 73.0742C307.02 71.9258 305.479 71.3516 303.656 71.3516C302.089 71.3516 300.867 71.6797 299.992 72.3359C299.135 72.9922 298.707 73.849 298.707 74.9062C298.707 75.9453 299.108 76.7747 299.91 77.3945C300.712 77.9961 301.888 78.5339 303.438 79.0078L305.789 79.6914C308.487 80.5117 310.538 81.6328 311.941 83.0547C313.345 84.4583 314.047 86.3177 314.047 88.6328C314.047 90.4922 313.491 92.0872 312.379 93.418C311.285 94.7487 309.772 95.7695 307.84 96.4805C305.926 97.1732 303.729 97.5195 301.25 97.5195C299.865 97.5195 298.525 97.4193 297.23 97.2188C295.954 97.0365 294.77 96.7721 293.676 96.4258C292.6 96.0794 291.698 95.6966 290.969 95.2773L290.75 87.6211H292.391C292.755 89.1523 293.348 90.4831 294.168 91.6133C295.007 92.7435 296.009 93.6276 297.176 94.2656C298.361 94.8854 299.646 95.1953 301.031 95.1953C302.654 95.1953 303.911 94.849 304.805 94.1562C305.716 93.4635 306.172 92.5703 306.172 91.4766C306.172 90.4193 305.807 89.5716 305.078 88.9336C304.367 88.2773 303.21 87.7031 301.605 87.2109L299.227 86.5C296.674 85.7161 294.633 84.6497 293.102 83.3008C291.589 81.9518 290.832 80.1289 290.832 77.832Z" fill="#9C783E"/>
<rect width="208" height="24" transform="translate(90.5 110)" fill="#F7F4EA"/>
<path d="M119.906 119.773C119.906 120.258 119.799 120.695 119.586 121.086C119.372 121.471 119.078 121.792 118.703 122.047C118.328 122.302 117.904 122.479 117.43 122.578V122.258L119.078 125.281C119.411 125.88 119.685 126.328 119.898 126.625C120.117 126.922 120.305 127.128 120.461 127.242C120.622 127.357 120.784 127.435 120.945 127.477V128H118.789L116.055 122.992H114.062V126.508C114.062 126.732 114.091 126.904 114.148 127.023C114.206 127.138 114.326 127.227 114.508 127.289C114.69 127.346 114.971 127.393 115.352 127.43V128H111.031V127.43C111.438 127.393 111.737 127.344 111.93 127.281C112.122 127.219 112.245 127.128 112.297 127.008C112.354 126.883 112.383 126.706 112.383 126.477V118.242C112.383 118.008 112.354 117.831 112.297 117.711C112.245 117.586 112.122 117.495 111.93 117.438C111.737 117.375 111.438 117.326 111.031 117.289V116.719H115.531C116.49 116.719 117.292 116.841 117.938 117.086C118.589 117.331 119.078 117.682 119.406 118.141C119.74 118.599 119.906 119.143 119.906 119.773ZM118.195 119.922C118.195 119.406 118.081 118.966 117.852 118.602C117.628 118.232 117.281 117.948 116.812 117.75C116.349 117.552 115.755 117.44 115.031 117.414L114.062 117.383V122.336L115.242 122.297C116.216 122.271 116.951 122.062 117.445 121.672C117.945 121.281 118.195 120.698 118.195 119.922ZM124.055 120.109V125.18C124.055 125.846 124.219 126.352 124.547 126.695C124.88 127.039 125.339 127.211 125.922 127.211C126.344 127.211 126.703 127.125 127 126.953C127.302 126.776 127.526 126.568 127.672 126.328V121.711C127.672 121.503 127.641 121.359 127.578 121.281C127.521 121.203 127.38 121.135 127.156 121.078L126.539 120.938V120.43L129.211 120.109V126.477C129.211 126.69 129.242 126.836 129.305 126.914C129.367 126.992 129.513 127.06 129.742 127.117L130.352 127.266V127.758L127.703 128.086V126.891C127.479 127.25 127.151 127.555 126.719 127.805C126.292 128.049 125.779 128.172 125.18 128.172C124.393 128.172 123.753 127.948 123.258 127.5C122.768 127.052 122.523 126.419 122.523 125.602V121.711C122.523 121.503 122.492 121.359 122.43 121.281C122.367 121.203 122.224 121.135 122 121.078L121.383 120.938V120.43L124.055 120.109ZM131.641 122.234C131.641 121.776 131.766 121.383 132.016 121.055C132.266 120.721 132.615 120.469 133.062 120.297C133.516 120.12 134.047 120.031 134.656 120.031C135.255 120.031 135.773 120.091 136.211 120.211C136.654 120.326 136.987 120.461 137.211 120.617L137.273 122.562H136.742C136.633 121.99 136.388 121.555 136.008 121.258C135.633 120.961 135.185 120.812 134.664 120.812C134.174 120.812 133.779 120.917 133.477 121.125C133.174 121.328 133.023 121.609 133.023 121.969C133.023 122.328 133.164 122.604 133.445 122.797C133.727 122.99 134.115 123.154 134.609 123.289L135.242 123.461C135.966 123.659 136.534 123.945 136.945 124.32C137.357 124.69 137.562 125.198 137.562 125.844C137.562 126.307 137.424 126.711 137.148 127.055C136.872 127.398 136.5 127.667 136.031 127.859C135.568 128.047 135.057 128.141 134.5 128.141C134.078 128.141 133.685 128.107 133.32 128.039C132.961 127.977 132.635 127.893 132.344 127.789C132.052 127.68 131.81 127.56 131.617 127.43L131.555 125.43H132.078C132.177 125.867 132.341 126.229 132.57 126.516C132.805 126.802 133.086 127.016 133.414 127.156C133.747 127.292 134.104 127.359 134.484 127.359C135 127.359 135.409 127.242 135.711 127.008C136.018 126.773 136.172 126.474 136.172 126.109C136.172 125.755 136.052 125.477 135.812 125.273C135.578 125.065 135.185 124.883 134.633 124.727L133.992 124.555C133.279 124.362 132.708 124.083 132.281 123.719C131.854 123.354 131.641 122.859 131.641 122.234ZM139.203 122.234C139.203 121.776 139.328 121.383 139.578 121.055C139.828 120.721 140.177 120.469 140.625 120.297C141.078 120.12 141.609 120.031 142.219 120.031C142.818 120.031 143.336 120.091 143.773 120.211C144.216 120.326 144.549 120.461 144.773 120.617L144.836 122.562H144.305C144.195 121.99 143.951 121.555 143.57 121.258C143.195 120.961 142.747 120.812 142.227 120.812C141.737 120.812 141.341 120.917 141.039 121.125C140.737 121.328 140.586 121.609 140.586 121.969C140.586 122.328 140.727 122.604 141.008 122.797C141.289 122.99 141.677 123.154 142.172 123.289L142.805 123.461C143.529 123.659 144.096 123.945 144.508 124.32C144.919 124.69 145.125 125.198 145.125 125.844C145.125 126.307 144.987 126.711 144.711 127.055C144.435 127.398 144.062 127.667 143.594 127.859C143.13 128.047 142.62 128.141 142.062 128.141C141.641 128.141 141.247 128.107 140.883 128.039C140.523 127.977 140.198 127.893 139.906 127.789C139.615 127.68 139.372 127.56 139.18 127.43L139.117 125.43H139.641C139.74 125.867 139.904 126.229 140.133 126.516C140.367 126.802 140.648 127.016 140.977 127.156C141.31 127.292 141.667 127.359 142.047 127.359C142.562 127.359 142.971 127.242 143.273 127.008C143.581 126.773 143.734 126.474 143.734 126.109C143.734 125.755 143.615 125.477 143.375 125.273C143.141 125.065 142.747 124.883 142.195 124.727L141.555 124.555C140.841 124.362 140.271 124.083 139.844 123.719C139.417 123.354 139.203 122.859 139.203 122.234ZM149.07 120.109V126.742C149.07 126.977 149.13 127.138 149.25 127.227C149.375 127.31 149.693 127.378 150.203 127.43V128H146.398V127.43C146.909 127.378 147.224 127.31 147.344 127.227C147.469 127.138 147.531 126.977 147.531 126.742V121.711C147.531 121.503 147.5 121.359 147.438 121.281C147.375 121.203 147.234 121.135 147.016 121.078L146.398 120.938V120.43L149.07 120.109ZM148.133 118.492C147.852 118.492 147.615 118.398 147.422 118.211C147.234 118.023 147.141 117.792 147.141 117.516C147.141 117.245 147.234 117.018 147.422 116.836C147.615 116.648 147.852 116.555 148.133 116.555C148.414 116.555 148.648 116.648 148.836 116.836C149.029 117.018 149.125 117.245 149.125 117.516C149.125 117.792 149.029 118.023 148.836 118.211C148.648 118.398 148.414 118.492 148.133 118.492ZM153.672 128.172C153.01 128.172 152.458 127.987 152.016 127.617C151.573 127.242 151.352 126.766 151.352 126.188C151.352 125.76 151.453 125.391 151.656 125.078C151.865 124.766 152.188 124.5 152.625 124.281C153.068 124.057 153.641 123.87 154.344 123.719L156.875 123.164V123.859L155.016 124.258C154.505 124.372 154.096 124.505 153.789 124.656C153.482 124.802 153.258 124.977 153.117 125.18C152.982 125.383 152.914 125.628 152.914 125.914C152.914 126.341 153.055 126.677 153.336 126.922C153.622 127.161 153.99 127.281 154.438 127.281C154.812 127.281 155.154 127.208 155.461 127.062C155.768 126.911 156.01 126.708 156.188 126.453V122.688C156.188 121.984 156.01 121.497 155.656 121.227C155.302 120.951 154.844 120.812 154.281 120.812C153.943 120.812 153.63 120.857 153.344 120.945C153.062 121.034 152.823 121.167 152.625 121.344C152.427 121.521 152.286 121.742 152.203 122.008H151.82C151.82 121.742 151.896 121.516 152.047 121.328C152.198 121.135 152.378 121.039 152.586 121.039C152.799 121.039 152.984 121.122 153.141 121.289C153.297 121.451 153.375 121.646 153.375 121.875C153.375 122.115 153.289 122.312 153.117 122.469C152.945 122.625 152.734 122.703 152.484 122.703C152.24 122.703 152.029 122.622 151.852 122.461C151.68 122.299 151.594 122.091 151.594 121.836C151.594 121.482 151.74 121.169 152.031 120.898C152.328 120.622 152.721 120.409 153.211 120.258C153.701 120.107 154.234 120.031 154.812 120.031C155.698 120.031 156.398 120.229 156.914 120.625C157.435 121.016 157.695 121.63 157.695 122.469V126.359C157.695 126.708 157.779 126.956 157.945 127.102C158.117 127.242 158.32 127.312 158.555 127.312C158.737 127.312 158.885 127.286 159 127.234V127.758C158.865 127.846 158.688 127.93 158.469 128.008C158.255 128.086 158.013 128.125 157.742 128.125C157.482 128.125 157.247 128.083 157.039 128C156.836 127.917 156.664 127.794 156.523 127.633C156.388 127.471 156.292 127.273 156.234 127.039C156.083 127.237 155.88 127.424 155.625 127.602C155.37 127.773 155.076 127.911 154.742 128.016C154.414 128.12 154.057 128.172 153.672 128.172ZM162.359 120.109V121.312C162.589 120.948 162.924 120.643 163.367 120.398C163.81 120.154 164.333 120.031 164.938 120.031C165.74 120.031 166.393 120.25 166.898 120.688C167.404 121.12 167.656 121.734 167.656 122.531V126.742C167.656 126.977 167.716 127.138 167.836 127.227C167.961 127.31 168.279 127.378 168.789 127.43V128H165.055V127.43C165.529 127.378 165.823 127.312 165.938 127.234C166.052 127.151 166.109 126.997 166.109 126.773V122.953C166.109 122.312 165.943 121.826 165.609 121.492C165.276 121.154 164.823 120.984 164.25 120.984C163.797 120.984 163.411 121.073 163.094 121.25C162.781 121.422 162.549 121.63 162.398 121.875V126.773C162.398 126.997 162.456 127.151 162.57 127.234C162.69 127.312 162.987 127.378 163.461 127.43V128H159.727V127.43C160.237 127.378 160.552 127.31 160.672 127.227C160.797 127.138 160.859 126.977 160.859 126.742V121.711C160.859 121.503 160.828 121.359 160.766 121.281C160.703 121.203 160.562 121.135 160.344 121.078L159.727 120.938V120.43L162.359 120.109ZM183.055 124.734C183.055 125.266 182.932 125.737 182.688 126.148C182.448 126.555 182.115 126.896 181.688 127.172C181.26 127.443 180.763 127.648 180.195 127.789C179.628 127.93 179.016 128 178.359 128H173.594V127.43C174 127.393 174.299 127.346 174.492 127.289C174.685 127.227 174.807 127.133 174.859 127.008C174.917 126.883 174.945 126.706 174.945 126.477V118.242C174.945 118.013 174.917 117.836 174.859 117.711C174.807 117.586 174.685 117.495 174.492 117.438C174.299 117.375 174 117.326 173.594 117.289V116.719H178.359C179.229 116.719 179.966 116.831 180.57 117.055C181.174 117.273 181.633 117.586 181.945 117.992C182.263 118.398 182.422 118.883 182.422 119.445C182.422 119.909 182.302 120.31 182.062 120.648C181.828 120.987 181.505 121.26 181.094 121.469C180.682 121.677 180.216 121.812 179.695 121.875C180.352 121.938 180.932 122.083 181.438 122.312C181.943 122.536 182.339 122.852 182.625 123.258C182.911 123.659 183.055 124.151 183.055 124.734ZM181.242 124.883C181.242 124.341 181.12 123.891 180.875 123.531C180.63 123.167 180.273 122.893 179.805 122.711C179.336 122.523 178.76 122.43 178.078 122.43H176.625V127.336L177.82 127.297C178.857 127.266 179.685 127.062 180.305 126.688C180.93 126.307 181.242 125.706 181.242 124.883ZM180.68 119.664C180.68 119.221 180.583 118.836 180.391 118.508C180.198 118.18 179.891 117.922 179.469 117.734C179.052 117.547 178.503 117.443 177.82 117.422L176.625 117.383V121.766H178.078C178.943 121.766 179.591 121.573 180.023 121.188C180.461 120.802 180.68 120.294 180.68 119.664ZM184.586 124.156C184.586 123.344 184.742 122.628 185.055 122.008C185.372 121.388 185.81 120.906 186.367 120.562C186.924 120.214 187.568 120.039 188.297 120.039C189 120.039 189.594 120.174 190.078 120.445C190.568 120.711 190.938 121.096 191.188 121.602C191.438 122.102 191.562 122.695 191.562 123.383C191.562 123.596 191.555 123.773 191.539 123.914H185.422V123.25H190.281L190.078 123.477C190.078 123.435 190.078 123.396 190.078 123.359C190.078 123.318 190.078 123.268 190.078 123.211C190.078 122.695 190.008 122.26 189.867 121.906C189.732 121.547 189.529 121.276 189.258 121.094C188.987 120.906 188.659 120.812 188.273 120.812C187.648 120.812 187.138 121.049 186.742 121.523C186.346 121.992 186.148 122.721 186.148 123.711C186.148 124.419 186.279 125.036 186.539 125.562C186.799 126.083 187.164 126.49 187.633 126.781C188.102 127.068 188.656 127.211 189.297 127.211C189.693 127.211 190.078 127.143 190.453 127.008C190.828 126.872 191.138 126.69 191.383 126.461V127.031C191.102 127.359 190.708 127.633 190.203 127.852C189.703 128.065 189.12 128.172 188.453 128.172C187.724 128.172 187.065 128.013 186.477 127.695C185.893 127.372 185.432 126.911 185.094 126.312C184.755 125.708 184.586 124.99 184.586 124.156ZM195.406 128.172C194.745 128.172 194.193 127.987 193.75 127.617C193.307 127.242 193.086 126.766 193.086 126.188C193.086 125.76 193.188 125.391 193.391 125.078C193.599 124.766 193.922 124.5 194.359 124.281C194.802 124.057 195.375 123.87 196.078 123.719L198.609 123.164V123.859L196.75 124.258C196.24 124.372 195.831 124.505 195.523 124.656C195.216 124.802 194.992 124.977 194.852 125.18C194.716 125.383 194.648 125.628 194.648 125.914C194.648 126.341 194.789 126.677 195.07 126.922C195.357 127.161 195.724 127.281 196.172 127.281C196.547 127.281 196.888 127.208 197.195 127.062C197.503 126.911 197.745 126.708 197.922 126.453V122.688C197.922 121.984 197.745 121.497 197.391 121.227C197.036 120.951 196.578 120.812 196.016 120.812C195.677 120.812 195.365 120.857 195.078 120.945C194.797 121.034 194.557 121.167 194.359 121.344C194.161 121.521 194.021 121.742 193.938 122.008H193.555C193.555 121.742 193.63 121.516 193.781 121.328C193.932 121.135 194.112 121.039 194.32 121.039C194.534 121.039 194.719 121.122 194.875 121.289C195.031 121.451 195.109 121.646 195.109 121.875C195.109 122.115 195.023 122.312 194.852 122.469C194.68 122.625 194.469 122.703 194.219 122.703C193.974 122.703 193.763 122.622 193.586 122.461C193.414 122.299 193.328 122.091 193.328 121.836C193.328 121.482 193.474 121.169 193.766 120.898C194.062 120.622 194.456 120.409 194.945 120.258C195.435 120.107 195.969 120.031 196.547 120.031C197.432 120.031 198.133 120.229 198.648 120.625C199.169 121.016 199.43 121.63 199.43 122.469V126.359C199.43 126.708 199.513 126.956 199.68 127.102C199.852 127.242 200.055 127.312 200.289 127.312C200.471 127.312 200.62 127.286 200.734 127.234V127.758C200.599 127.846 200.422 127.93 200.203 128.008C199.99 128.086 199.747 128.125 199.477 128.125C199.216 128.125 198.982 128.083 198.773 128C198.57 127.917 198.398 127.794 198.258 127.633C198.122 127.471 198.026 127.273 197.969 127.039C197.818 127.237 197.615 127.424 197.359 127.602C197.104 127.773 196.81 127.911 196.477 128.016C196.148 128.12 195.792 128.172 195.406 128.172ZM203.914 120.109V125.18C203.914 125.846 204.078 126.352 204.406 126.695C204.74 127.039 205.198 127.211 205.781 127.211C206.203 127.211 206.562 127.125 206.859 126.953C207.161 126.776 207.385 126.568 207.531 126.328V121.711C207.531 121.503 207.5 121.359 207.438 121.281C207.38 121.203 207.24 121.135 207.016 121.078L206.398 120.938V120.43L209.07 120.109V126.477C209.07 126.69 209.102 126.836 209.164 126.914C209.227 126.992 209.372 127.06 209.602 127.117L210.211 127.266V127.758L207.562 128.086V126.891C207.339 127.25 207.01 127.555 206.578 127.805C206.151 128.049 205.638 128.172 205.039 128.172C204.253 128.172 203.612 127.948 203.117 127.5C202.628 127.052 202.383 126.419 202.383 125.602V121.711C202.383 121.503 202.352 121.359 202.289 121.281C202.227 121.203 202.083 121.135 201.859 121.078L201.242 120.938V120.43L203.914 120.109ZM212.109 125.781V121H211.047V120.602L213.383 118.742H213.641V120.25L216.094 120.195V121L213.641 120.961V125.445C213.641 126.128 213.779 126.594 214.055 126.844C214.336 127.094 214.688 127.219 215.109 127.219C215.323 127.219 215.526 127.193 215.719 127.141C215.917 127.089 216.086 127.016 216.227 126.922V127.492C216.049 127.685 215.786 127.846 215.438 127.977C215.094 128.107 214.711 128.172 214.289 128.172C213.893 128.172 213.531 128.094 213.203 127.938C212.875 127.781 212.609 127.529 212.406 127.18C212.208 126.831 212.109 126.365 212.109 125.781ZM217.898 122.023C217.773 121.711 217.656 121.474 217.547 121.312C217.438 121.151 217.307 121.034 217.156 120.961C217.005 120.883 216.805 120.82 216.555 120.773V120.195H220.391V120.773C219.859 120.82 219.534 120.914 219.414 121.055C219.294 121.195 219.315 121.484 219.477 121.922L221.227 126.586H220.891L222.734 121.922C222.849 121.625 222.898 121.398 222.883 121.242C222.867 121.086 222.773 120.977 222.602 120.914C222.435 120.846 222.174 120.799 221.82 120.773V120.195H224.883V120.773C224.622 120.81 224.417 120.859 224.266 120.922C224.12 120.984 223.992 121.102 223.883 121.273C223.773 121.44 223.646 121.703 223.5 122.062L221.625 126.594L221.047 128L219.742 131.594H218.352V131.562C218.518 131.26 218.714 130.901 218.938 130.484C219.161 130.073 219.391 129.643 219.625 129.195C219.859 128.747 220.083 128.318 220.297 127.906L217.898 122.023ZM233.281 128.227C232.516 128.227 231.82 128.13 231.195 127.938C230.57 127.745 230.091 127.51 229.758 127.234L229.656 124.844H230.188C230.286 125.281 230.435 125.661 230.633 125.984C230.831 126.302 231.068 126.568 231.344 126.781C231.625 126.995 231.935 127.154 232.273 127.258C232.612 127.357 232.971 127.406 233.352 127.406C234.091 127.406 234.677 127.224 235.109 126.859C235.547 126.49 235.766 126.01 235.766 125.422C235.766 124.844 235.578 124.37 235.203 124C234.833 123.63 234.26 123.31 233.484 123.039L232.766 122.805C231.797 122.471 231.062 122.044 230.562 121.523C230.062 121.003 229.812 120.357 229.812 119.586C229.812 118.977 229.969 118.44 230.281 117.977C230.599 117.508 231.049 117.143 231.633 116.883C232.216 116.622 232.914 116.492 233.727 116.492C234.378 116.492 234.969 116.578 235.5 116.75C236.036 116.922 236.456 117.13 236.758 117.375L236.852 119.758H236.328C236.219 119.19 236.039 118.727 235.789 118.367C235.539 118.003 235.232 117.737 234.867 117.57C234.508 117.398 234.104 117.312 233.656 117.312C232.901 117.312 232.323 117.484 231.922 117.828C231.526 118.167 231.328 118.62 231.328 119.188C231.328 119.755 231.521 120.203 231.906 120.531C232.292 120.859 232.857 121.151 233.602 121.406L234.32 121.648C235.336 121.997 236.081 122.435 236.555 122.961C237.029 123.487 237.266 124.156 237.266 124.969C237.266 125.609 237.089 126.177 236.734 126.672C236.385 127.161 235.909 127.544 235.305 127.82C234.706 128.091 234.031 128.227 233.281 128.227ZM239.578 125.781V121H238.516V120.602L240.852 118.742H241.109V120.25L243.562 120.195V121L241.109 120.961V125.445C241.109 126.128 241.247 126.594 241.523 126.844C241.805 127.094 242.156 127.219 242.578 127.219C242.792 127.219 242.995 127.193 243.188 127.141C243.385 127.089 243.555 127.016 243.695 126.922V127.492C243.518 127.685 243.255 127.846 242.906 127.977C242.562 128.107 242.18 128.172 241.758 128.172C241.362 128.172 241 128.094 240.672 127.938C240.344 127.781 240.078 127.529 239.875 127.18C239.677 126.831 239.578 126.365 239.578 125.781ZM246.898 120.109V125.18C246.898 125.846 247.062 126.352 247.391 126.695C247.724 127.039 248.182 127.211 248.766 127.211C249.188 127.211 249.547 127.125 249.844 126.953C250.146 126.776 250.37 126.568 250.516 126.328V121.711C250.516 121.503 250.484 121.359 250.422 121.281C250.365 121.203 250.224 121.135 250 121.078L249.383 120.938V120.43L252.055 120.109V126.477C252.055 126.69 252.086 126.836 252.148 126.914C252.211 126.992 252.357 127.06 252.586 127.117L253.195 127.266V127.758L250.547 128.086V126.891C250.323 127.25 249.995 127.555 249.562 127.805C249.135 128.049 248.622 128.172 248.023 128.172C247.237 128.172 246.596 127.948 246.102 127.5C245.612 127.052 245.367 126.419 245.367 125.602V121.711C245.367 121.503 245.336 121.359 245.273 121.281C245.211 121.203 245.068 121.135 244.844 121.078L244.227 120.938V120.43L246.898 120.109ZM254.398 124.195C254.398 123.367 254.562 122.641 254.891 122.016C255.224 121.391 255.669 120.904 256.227 120.555C256.789 120.206 257.417 120.031 258.109 120.031C258.552 120.031 258.953 120.107 259.312 120.258C259.672 120.409 259.969 120.602 260.203 120.836V118C260.203 117.792 260.172 117.648 260.109 117.57C260.052 117.492 259.911 117.424 259.688 117.367L259.062 117.219V116.719L261.742 116.391V126.477C261.742 126.69 261.773 126.836 261.836 126.914C261.898 126.992 262.047 127.06 262.281 127.117L262.875 127.266V127.758L260.234 128.086V126.805C260.021 127.211 259.672 127.542 259.188 127.797C258.708 128.047 258.182 128.172 257.609 128.172C257.036 128.172 256.505 128.016 256.016 127.703C255.531 127.385 255.141 126.93 254.844 126.336C254.547 125.742 254.398 125.029 254.398 124.195ZM256 124.055C256 124.706 256.099 125.268 256.297 125.742C256.495 126.211 256.771 126.573 257.125 126.828C257.479 127.083 257.898 127.211 258.383 127.211C258.794 127.211 259.159 127.13 259.477 126.969C259.794 126.807 260.036 126.576 260.203 126.273V121.648C260.073 121.424 259.852 121.232 259.539 121.07C259.227 120.904 258.857 120.82 258.43 120.82C257.956 120.82 257.536 120.951 257.172 121.211C256.807 121.471 256.521 121.844 256.312 122.328C256.104 122.807 256 123.383 256 124.055ZM266.477 120.109V126.742C266.477 126.977 266.536 127.138 266.656 127.227C266.781 127.31 267.099 127.378 267.609 127.43V128H263.805V127.43C264.315 127.378 264.63 127.31 264.75 127.227C264.875 127.138 264.938 126.977 264.938 126.742V121.711C264.938 121.503 264.906 121.359 264.844 121.281C264.781 121.203 264.641 121.135 264.422 121.078L263.805 120.938V120.43L266.477 120.109ZM265.539 118.492C265.258 118.492 265.021 118.398 264.828 118.211C264.641 118.023 264.547 117.792 264.547 117.516C264.547 117.245 264.641 117.018 264.828 116.836C265.021 116.648 265.258 116.555 265.539 116.555C265.82 116.555 266.055 116.648 266.242 116.836C266.435 117.018 266.531 117.245 266.531 117.516C266.531 117.792 266.435 118.023 266.242 118.211C266.055 118.398 265.82 118.492 265.539 118.492ZM272.727 128.172C271.992 128.172 271.328 128 270.734 127.656C270.146 127.312 269.68 126.839 269.336 126.234C268.992 125.625 268.82 124.924 268.82 124.133C268.82 123.32 268.997 122.607 269.352 121.992C269.706 121.378 270.185 120.898 270.789 120.555C271.398 120.206 272.086 120.031 272.852 120.031C273.591 120.031 274.255 120.203 274.844 120.547C275.438 120.885 275.906 121.359 276.25 121.969C276.594 122.573 276.766 123.271 276.766 124.062C276.766 124.875 276.589 125.589 276.234 126.203C275.88 126.818 275.398 127.299 274.789 127.648C274.18 127.997 273.492 128.172 272.727 128.172ZM272.852 127.383C273.32 127.383 273.721 127.255 274.055 127C274.393 126.745 274.651 126.38 274.828 125.906C275.01 125.432 275.102 124.87 275.102 124.219C275.102 123.521 274.997 122.919 274.789 122.414C274.581 121.904 274.299 121.51 273.945 121.234C273.591 120.953 273.185 120.812 272.727 120.812C272.253 120.812 271.849 120.943 271.516 121.203C271.182 121.458 270.927 121.823 270.75 122.297C270.573 122.766 270.484 123.328 270.484 123.984C270.484 124.677 270.586 125.279 270.789 125.789C270.992 126.299 271.271 126.693 271.625 126.969C271.984 127.245 272.393 127.383 272.852 127.383Z" fill="#9C783E"/>
</svg>
